<?xml version="1.0" encoding="UTF-8" standalone="no"?>
<!DOCTYPE svg PUBLIC "-//W3C//DTD SVG 1.1//EN" "http://www.w3.org/Graphics/SVG/1.1/DTD/svg11.dtd">
<svg width="100%" height="100%" viewBox="0 0 596 199" version="1.1" xmlns="http://www.w3.org/2000/svg" xmlns:xlink="http://www.w3.org/1999/xlink" xml:space="preserve" xmlns:serif="http://www.serif.com/" style="fill-rule:evenodd;clip-rule:evenodd;">
    <g transform="matrix(0.402576,0,0,0.215087,22.9846,106.097)">
        <g id="molecule">
            <g id="g1131">
                <g id="g1041">
                    <g id="g979">
                        <path id="path977" d="M470.571,113.461L392.109,112.092C391.171,112.075 390.425,111.302 390.441,110.364C390.458,109.426 391.231,108.679 392.169,108.695L470.631,110.065C471.569,110.081 472.316,110.855 472.299,111.793C472.282,112.731 471.509,113.478 470.571,113.461Z" style="fill-rule:nonzero;"/>
                    </g>
                    <g id="g985">
                        <path id="path981" d="M386.445,118.222C386.899,119.042 387.933,119.339 388.754,118.884C389.574,118.429 389.871,117.395 389.416,116.575L359.487,62.582C359.033,61.762 357.999,61.466 357.178,61.921C356.358,62.375 356.061,63.409 356.516,64.229L386.445,118.222ZM398.824,111.36C399.279,112.18 400.313,112.476 401.134,112.022C401.954,111.567 402.25,110.533 401.796,109.713L371.867,55.72C371.412,54.9 370.378,54.603 369.558,55.058C368.738,55.513 368.441,56.547 368.896,57.367L398.824,111.36Z" style="fill:rgb(255,0,0);fill-rule:nonzero;"/>
                        <clipPath id="_clip1">
                            <path id="path983" d="M392.139,81.57C376.22,81.57 363.316,94.475 363.316,110.394C363.316,126.312 376.22,139.217 392.139,139.217C408.058,139.217 420.962,126.312 420.962,110.394C420.962,94.475 408.058,81.57 392.139,81.57Z"/>
                        </clipPath>
                        <g clip-path="url(#_clip1)">
                            <path d="M386.445,118.222C386.899,119.042 387.933,119.339 388.754,118.884C389.574,118.429 389.871,117.395 389.416,116.575L359.487,62.582C359.033,61.762 357.999,61.466 357.178,61.921C356.358,62.375 356.061,63.409 356.516,64.229L386.445,118.222ZM398.824,111.36C399.279,112.18 400.313,112.476 401.134,112.022C401.954,111.567 402.25,110.533 401.796,109.713L371.867,55.72C371.412,54.9 370.378,54.603 369.558,55.058C368.738,55.513 368.441,56.547 368.896,57.367L398.824,111.36Z" style="fill-rule:nonzero;"/>
                        </g>
                    </g>
                    <g id="g991">
                        <path id="path987" d="M393.595,111.268L363.112,162C362.629,162.804 361.585,163.065 360.782,162.581C359.977,162.098 359.717,161.055 360.2,160.251L390.683,109.519C391.166,108.715 392.21,108.454 393.014,108.937C393.818,109.421 394.078,110.464 393.595,111.268Z" style="fill:rgb(51,51,153);fill-rule:nonzero;"/>
                        <clipPath id="_clip2">
                            <path id="path989" d="M392.139,80.801C375.795,80.801 362.546,94.05 362.546,110.394C362.546,126.737 375.795,139.986 392.139,139.986C408.483,139.986 421.732,126.737 421.732,110.394C421.732,94.05 408.483,80.801 392.139,80.801Z"/>
                        </clipPath>
                        <g clip-path="url(#_clip2)">
                            <path d="M393.595,111.268L363.112,162C362.629,162.804 361.585,163.065 360.782,162.581C359.977,162.098 359.717,161.055 360.2,160.251L390.683,109.519C391.166,108.715 392.21,108.454 393.014,108.937C393.818,109.421 394.078,110.464 393.595,111.268Z" style="fill-rule:nonzero;"/>
                        </g>
                    </g>
                    <g id="g997">
                        <path id="path993" d="M337.042,179.101L273.231,177.987C272.293,177.971 271.545,177.197 271.562,176.259C271.578,175.321 272.352,174.574 273.29,174.591L337.102,175.705C338.04,175.721 338.787,176.495 338.77,177.433C338.753,178.371 337.98,179.118 337.042,179.101Z" style="fill-rule:nonzero;"/>
                        <clipPath id="_clip3">
                            <path id="path995" d="M337.072,145.492C319.448,145.492 305.162,159.779 305.162,177.403C305.162,195.027 319.448,209.314 337.072,209.314C354.696,209.314 368.983,195.027 368.983,177.403C368.983,159.779 354.696,145.492 337.072,145.492Z"/>
                        </clipPath>
                        <g clip-path="url(#_clip3)">
                            <path d="M337.042,179.101L273.231,177.987C272.293,177.971 271.545,177.197 271.562,176.259C271.578,175.321 272.352,174.574 273.29,174.591L337.102,175.705C338.04,175.721 338.787,176.495 338.77,177.433C338.753,178.371 337.98,179.118 337.042,179.101Z" style="fill:rgb(51,51,153);fill-rule:nonzero;"/>
                        </g>
                    </g>
                    <g id="g1001">
                        <path id="path999" d="M274.716,177.164C275.199,176.36 274.939,175.316 274.135,174.833C273.331,174.35 272.288,174.61 271.804,175.414L231.387,242.679C230.904,243.484 231.164,244.527 231.968,245.01C232.773,245.493 233.816,245.233 234.299,244.429L274.716,177.164ZM257.499,178.335C257.983,177.53 257.722,176.487 256.918,176.004C256.114,175.521 255.071,175.781 254.587,176.585L224.338,226.928C223.855,227.733 224.115,228.776 224.919,229.259C225.723,229.742 226.767,229.482 227.25,228.678L257.499,178.335Z" style="fill-rule:nonzero;"/>
                    </g>
                    <g id="g1005">
                        <path id="path1003" d="M232.814,245.253L154.352,243.883C153.414,243.867 152.667,243.093 152.683,242.155C152.7,241.217 153.473,240.47 154.411,240.487L232.873,241.856C233.811,241.872 234.558,242.646 234.541,243.584C234.525,244.522 233.751,245.269 232.814,245.253Z" style="fill-rule:nonzero;"/>
                    </g>
                    <g id="g1009">
                        <path id="path1007" d="M152.896,243.008C153.351,243.829 154.384,244.125 155.205,243.67C156.025,243.215 156.322,242.182 155.867,241.361L117.822,172.727C117.367,171.906 116.334,171.61 115.513,172.064C114.693,172.519 114.396,173.553 114.851,174.374L152.896,243.008ZM160.49,227.513C160.945,228.333 161.979,228.629 162.799,228.175C163.62,227.72 163.916,226.686 163.462,225.866L134.988,174.497C134.533,173.677 133.499,173.381 132.678,173.835C131.858,174.29 131.562,175.324 132.016,176.144L160.49,227.513Z" style="fill-rule:nonzero;"/>
                    </g>
                    <g id="g1015">
                        <path id="path1011" d="M116.307,175.248L54.246,174.165C53.308,174.149 52.561,173.375 52.577,172.437C52.593,171.499 53.367,170.752 54.305,170.768L116.366,171.852C117.304,171.868 118.051,172.642 118.035,173.58C118.018,174.518 117.245,175.265 116.307,175.248Z" style="fill:rgb(255,0,0);fill-rule:nonzero;"/>
                        <clipPath id="_clip4">
                            <path id="path1013" d="M116.336,142.515C99.196,142.515 85.301,156.41 85.301,173.55C85.301,190.69 99.196,204.585 116.336,204.585C133.477,204.585 147.372,190.69 147.372,173.55C147.372,156.41 133.477,142.515 116.336,142.515Z"/>
                        </clipPath>
                        <g clip-path="url(#_clip4)">
                            <path d="M116.307,175.248L54.246,174.165C53.308,174.149 52.561,173.375 52.577,172.437C52.593,171.499 53.367,170.752 54.305,170.768L116.366,171.852C117.304,171.868 118.051,172.642 118.035,173.58C118.018,174.518 117.245,175.265 116.307,175.248Z" style="fill-rule:nonzero;"/>
                        </g>
                    </g>
                    <g id="g1019">
                        <path id="path1017" d="M114.881,172.675L155.297,105.41C155.781,104.606 156.824,104.346 157.628,104.829C158.432,105.312 158.693,106.356 158.21,107.16L117.793,174.425C117.309,175.229 116.266,175.489 115.462,175.006C114.657,174.523 114.398,173.479 114.881,172.675Z" style="fill-rule:nonzero;"/>
                    </g>
                    <g id="g1023">
                        <path id="path1021" d="M156.783,104.587C155.845,104.57 155.072,105.317 155.055,106.255C155.039,107.193 155.786,107.967 156.724,107.983L235.186,109.353C236.124,109.369 236.897,108.622 236.914,107.684C236.93,106.746 236.183,105.972 235.245,105.956L156.783,104.587ZM166.405,118.911C165.467,118.895 164.694,119.642 164.677,120.58C164.661,121.518 165.408,122.291 166.346,122.308L225.069,123.333C226.007,123.349 226.781,122.602 226.797,121.664C226.814,120.726 226.067,119.953 225.129,119.936L166.405,118.911Z" style="fill-rule:nonzero;"/>
                    </g>
                    <g id="g1027">
                        <path id="path1025" d="M271.775,177.113L233.73,108.478C233.275,107.657 233.571,106.623 234.392,106.169C235.212,105.714 236.246,106.01 236.701,106.831L274.746,175.466C275.201,176.286 274.904,177.32 274.084,177.775C273.263,178.229 272.229,177.933 271.775,177.113Z" style="fill-rule:nonzero;"/>
                    </g>
                    <g transform="matrix(1,0,0,1,344.516,51.6798)">
                        <g id="g1031">
                            <text id="text1029" x="0px" y="0px" style="font-family:'LucidaGrande', 'Lucida Grande', sans-serif;font-weight:500;font-size:25.512px;fill:rgb(255,0,0);">O</text>
                        </g>
                    </g>
                    <g transform="matrix(1,0,0,1,342.478,187.58)">
                        <g id="g1035">
                            <text id="text1033" x="0px" y="0px" style="font-family:'LucidaGrande', 'Lucida Grande', sans-serif;font-weight:500;font-size:25.512px;fill:rgb(51,51,153);">N</text>
                        </g>
                    </g>
                    <g transform="matrix(1,0,0,1,28.2966,182.102)">
                        <g id="g1039">
                            <text id="text1037" x="0px" y="0px" style="font-family:'LucidaGrande', 'Lucida Grande', sans-serif;font-weight:500;font-size:25.512px;fill:rgb(255,0,0);">O</text>
                        </g>
                    </g>
                </g>
            </g>
        </g>
    </g>
    <g transform="matrix(1,0,0,1,-0.19578,-694.625)">
        <g id="skeleton">
            <g id="g1366">
                <path id="path1346" d="M38.544,786.584L69.985,786.773L91.374,772.568L112.424,772.757L132.488,787.341L164.118,787.72L180.975,773.515L171.492,758.741" style="fill:none;fill-rule:nonzero;stroke:rgb(204,204,204);stroke-width:0.75px;"/>
                <path id="path1348" d="M180.975,773.515L213.363,773.326" style="fill:none;fill-rule:nonzero;stroke:rgb(204,204,204);stroke-width:0.75px;"/>
                <path id="path1350" d="M132.488,787.341L117.714,801.357L85.326,800.978L69.985,786.773" style="fill:none;fill-rule:nonzero;stroke:rgb(204,204,204);stroke-width:0.75px;"/>
                <ellipse id="path1270" cx="38.544" cy="786.584" rx="2.046" ry="1.818" style="fill:rgb(153,153,153);"/>
                <ellipse id="ellipse1272" cx="69.985" cy="786.773" rx="2.046" ry="1.818" style="fill:rgb(153,153,153);"/>
                <ellipse id="ellipse1274" cx="91.374" cy="772.568" rx="1.636" ry="1.455" style="fill:rgb(153,153,153);"/>
                <ellipse id="ellipse1276" cx="112.424" cy="772.757" rx="1.636" ry="1.455" style="fill:rgb(153,153,153);"/>
                <ellipse id="ellipse1278" cx="132.488" cy="787.341" rx="2.046" ry="1.818" style="fill:rgb(153,153,153);"/>
                <ellipse id="ellipse1280" cx="117.714" cy="801.357" rx="2.557" ry="2.273" style="fill:rgb(153,153,153);"/>
                <ellipse id="ellipse1282" cx="85.326" cy="800.978" rx="2.557" ry="2.273" style="fill:rgb(153,153,153);"/>
                <ellipse id="ellipse1284" cx="164.118" cy="787.72" rx="2.046" ry="1.818" style="fill:rgb(153,153,153);"/>
                <ellipse id="ellipse1286" cx="180.975" cy="773.515" rx="1.636" ry="1.455" style="fill:rgb(153,153,153);"/>
                <ellipse id="ellipse1288" cx="171.492" cy="758.741" rx="1.309" ry="1.164" style="fill:rgb(153,153,153);"/>
                <ellipse id="ellipse1290" cx="213.363" cy="773.326" rx="1.636" ry="1.455" style="fill:rgb(153,153,153);"/>
            </g>
        </g>
    </g>
    <g transform="matrix(1,0,0,1,0,-657.638)">
        <g id="Layer-1" serif:id="Layer 1">
            <g id="g1450">
                <g id="g1148" transform="matrix(0.501858,0,0,0.67574,20.5268,250.873)">
                    <rect id="rect1133" x="30.793" y="677.147" width="9.434" height="10.735" style="fill:rgb(170,238,255);stroke:rgb(7,7,7);stroke-width:0.86px;"/>
                    <rect id="rect1135" x="30.793" y="687.882" width="9.434" height="10.735" style="fill:rgb(42,212,255);stroke:rgb(7,7,7);stroke-width:0.86px;"/>
                    <rect id="rect1137" x="30.793" y="698.618" width="9.434" height="10.735" style="fill:rgb(0,68,85);stroke:rgb(7,7,7);stroke-width:0.86px;"/>
                    <rect id="rect1139" x="30.793" y="709.353" width="9.434" height="10.735" style="fill:rgb(0,34,43);stroke:rgb(7,7,7);stroke-width:0.86px;"/>
                    <rect id="rect1141" x="30.793" y="720.088" width="9.434" height="10.735" style="fill:rgb(175,221,233);stroke:rgb(7,7,7);stroke-width:0.86px;"/>
                </g>
                <g id="g1160" transform="matrix(0.501858,0,0,0.67574,51.9678,251.062)">
                    <rect id="rect1150" x="30.793" y="677.147" width="9.434" height="10.735" style="fill:rgb(213,246,255);stroke:rgb(7,7,7);stroke-width:0.86px;"/>
                    <rect id="rect1152" x="30.793" y="687.882" width="9.434" height="10.735" style="fill:rgb(55,171,200);stroke:rgb(7,7,7);stroke-width:0.86px;"/>
                    <rect id="rect1154" x="30.793" y="698.618" width="9.434" height="10.735" style="fill:rgb(0,68,85);stroke:rgb(7,7,7);stroke-width:0.86px;"/>
                    <rect id="rect1156" x="30.793" y="709.353" width="9.434" height="10.735" style="fill:rgb(219,226,227);stroke:rgb(7,7,7);stroke-width:0.86px;"/>
                    <rect id="rect1158" x="30.793" y="720.088" width="9.434" height="10.735" style="fill:rgb(175,221,233);stroke:rgb(7,7,7);stroke-width:0.86px;"/>
                </g>
                <g id="g1172" transform="matrix(0.401486,0,0,0.540592,76.9218,334.901)">
                    <rect id="rect1162" x="30.793" y="677.147" width="9.434" height="10.735" style="fill:rgb(170,238,255);stroke:rgb(7,7,7);stroke-width:0.86px;"/>
                    <rect id="rect1164" x="30.793" y="687.882" width="9.434" height="10.735" style="fill:rgb(183,196,200);stroke:rgb(7,7,7);stroke-width:0.86px;"/>
                    <rect id="rect1166" x="30.793" y="698.618" width="9.434" height="10.735" style="fill:rgb(0,68,85);stroke:rgb(7,7,7);stroke-width:0.86px;"/>
                    <rect id="rect1168" x="30.793" y="709.353" width="9.434" height="10.735" style="fill:rgb(0,34,43);stroke:rgb(7,7,7);stroke-width:0.86px;"/>
                    <rect id="rect1170" x="30.793" y="720.088" width="9.434" height="10.735" style="fill:rgb(175,221,233);stroke:rgb(7,7,7);stroke-width:0.86px;"/>
                </g>
                <g id="g1184" transform="matrix(0.401486,0,0,0.540592,97.9713,335.09)">
                    <rect id="rect1174" x="30.793" y="677.147" width="9.434" height="10.735" style="fill:rgb(213,246,255);stroke:rgb(7,7,7);stroke-width:0.86px;"/>
                    <rect id="rect1176" x="30.793" y="687.882" width="9.434" height="10.735" style="fill:rgb(42,212,255);stroke:rgb(7,7,7);stroke-width:0.86px;"/>
                    <rect id="rect1178" x="30.793" y="698.618" width="9.434" height="10.735" style="fill:rgb(183,200,196);stroke:rgb(7,7,7);stroke-width:0.86px;"/>
                    <rect id="rect1180" x="30.793" y="709.353" width="9.434" height="10.735" style="fill:rgb(0,204,255);stroke:rgb(7,7,7);stroke-width:0.86px;"/>
                    <rect id="rect1182" x="30.793" y="720.088" width="9.434" height="10.735" style="fill:rgb(83,103,108);stroke:rgb(7,7,7);stroke-width:0.86px;"/>
                </g>
                <g id="g1196" transform="matrix(0.627322,0,0,0.844675,95.2423,143.092)">
                    <rect id="rect1186" x="30.793" y="677.147" width="9.434" height="10.735" style="fill:rgb(83,103,108);stroke:rgb(7,7,7);stroke-width:0.86px;"/>
                    <rect id="rect1188" x="30.793" y="687.882" width="9.434" height="10.735" style="fill:rgb(42,212,255);stroke:rgb(7,7,7);stroke-width:0.86px;"/>
                    <rect id="rect1190" x="30.793" y="698.618" width="9.434" height="10.735" style="fill:rgb(219,226,227);stroke:rgb(7,7,7);stroke-width:0.86px;"/>
                    <rect id="rect1192" x="30.793" y="709.353" width="9.434" height="10.735" style="fill:rgb(55,171,200);stroke:rgb(7,7,7);stroke-width:0.86px;"/>
                    <rect id="rect1194" x="30.793" y="720.088" width="9.434" height="10.735" style="fill:rgb(213,229,255);stroke:rgb(7,7,7);stroke-width:0.86px;"/>
                </g>
                <g id="g1208" transform="matrix(0.627322,0,0,0.844675,62.8543,142.713)">
                    <rect id="rect1198" x="30.793" y="677.147" width="9.434" height="10.735" style="fill:rgb(44,137,160);stroke:rgb(7,7,7);stroke-width:0.86px;"/>
                    <rect id="rect1200" x="30.793" y="687.882" width="9.434" height="10.735" style="fill:rgb(44,137,160);stroke:rgb(7,7,7);stroke-width:0.86px;"/>
                    <rect id="rect1202" x="30.793" y="698.618" width="9.434" height="10.735" style="fill:rgb(0,68,85);stroke:rgb(7,7,7);stroke-width:0.86px;"/>
                    <rect id="rect1204" x="30.793" y="709.353" width="9.434" height="10.735" style="fill:rgb(183,196,200);stroke:rgb(7,7,7);stroke-width:0.86px;"/>
                    <rect id="rect1206" x="30.793" y="720.088" width="9.434" height="10.735" style="fill:rgb(219,226,227);stroke:rgb(7,7,7);stroke-width:0.86px;"/>
                </g>
                <g id="g1232" transform="matrix(0.401486,0,0,0.540592,198.911,335.659)">
                    <rect id="rect1222" x="30.793" y="677.147" width="9.434" height="10.735" style="fill:rgb(170,238,255);stroke:rgb(7,7,7);stroke-width:0.86px;"/>
                    <rect id="rect1224" x="30.793" y="687.882" width="9.434" height="10.735" style="fill:rgb(0,102,128);stroke:rgb(7,7,7);stroke-width:0.86px;"/>
                    <rect id="rect1226" x="30.793" y="698.618" width="9.434" height="10.735" style="fill:rgb(0,68,85);stroke:rgb(7,7,7);stroke-width:0.86px;"/>
                    <rect id="rect1228" x="30.793" y="709.353" width="9.434" height="10.735" style="fill:rgb(135,205,222);stroke:rgb(7,7,7);stroke-width:0.86px;"/>
                    <rect id="rect1230" x="30.793" y="720.088" width="9.434" height="10.735" style="fill:rgb(175,221,233);stroke:rgb(7,7,7);stroke-width:0.86px;"/>
                </g>
                <g id="g1244" transform="matrix(0.321189,0,0,0.432473,159.891,399.51)">
                    <rect id="rect1234" x="30.793" y="677.147" width="9.434" height="10.735" style="fill:rgb(83,108,103);stroke:rgb(7,7,7);stroke-width:0.86px;"/>
                    <rect id="rect1236" x="30.793" y="687.882" width="9.434" height="10.735" style="fill:rgb(42,212,255);stroke:rgb(7,7,7);stroke-width:0.86px;"/>
                    <rect id="rect1238" x="30.793" y="698.618" width="9.434" height="10.735" style="fill:rgb(33,103,120);stroke:rgb(7,7,7);stroke-width:0.86px;"/>
                    <rect id="rect1240" x="30.793" y="709.353" width="9.434" height="10.735" style="fill:rgb(215,238,244);stroke:rgb(7,7,7);stroke-width:0.86px;"/>
                    <rect id="rect1242" x="30.793" y="720.088" width="9.434" height="10.735" style="fill:rgb(175,221,233);stroke:rgb(7,7,7);stroke-width:0.86px;"/>
                </g>
                <g id="g1256" transform="matrix(0.501858,0,0,0.67574,114.471,251.631)">
                    <rect id="rect1246" x="30.793" y="677.147" width="9.434" height="10.735" style="fill:rgb(183,196,200);stroke:rgb(7,7,7);stroke-width:0.86px;"/>
                    <rect id="rect1248" x="30.793" y="687.882" width="9.434" height="10.735" style="fill:rgb(95,188,211);stroke:rgb(7,7,7);stroke-width:0.86px;"/>
                    <rect id="rect1250" x="30.793" y="698.618" width="9.434" height="10.735" style="fill:rgb(0,68,85);stroke:rgb(7,7,7);stroke-width:0.86px;"/>
                    <rect id="rect1252" x="30.793" y="709.353" width="9.434" height="10.735" style="fill:rgb(0,170,212);stroke:rgb(7,7,7);stroke-width:0.86px;"/>
                    <rect id="rect1254" x="30.793" y="720.088" width="9.434" height="10.735" style="fill:rgb(175,221,233);stroke:rgb(7,7,7);stroke-width:0.86px;"/>
                </g>
                <g id="g1268" transform="matrix(0.401486,0,0,0.540592,166.523,335.848)">
                    <rect id="rect1258" x="30.793" y="677.147" width="9.434" height="10.735" style="fill:rgb(128,229,255);stroke:rgb(7,7,7);stroke-width:0.86px;"/>
                    <rect id="rect1260" x="30.793" y="687.882" width="9.434" height="10.735" style="fill:rgb(22,68,80);stroke:rgb(7,7,7);stroke-width:0.86px;"/>
                    <rect id="rect1262" x="30.793" y="698.618" width="9.434" height="10.735" style="fill:rgb(0,68,85);stroke:rgb(7,7,7);stroke-width:0.86px;"/>
                    <rect id="rect1264" x="30.793" y="709.353" width="9.434" height="10.735" style="fill:rgb(55,171,200);stroke:rgb(7,7,7);stroke-width:0.86px;"/>
                    <rect id="rect1266" x="30.793" y="720.088" width="9.434" height="10.735" style="fill:rgb(0,68,85);stroke:rgb(7,7,7);stroke-width:0.86px;"/>
                </g>
                <g id="g1220" transform="matrix(0.501858,0,0,0.67574,146.101,252.009)">
                    <rect id="rect1210" x="30.793" y="677.147" width="9.434" height="10.735" style="fill:rgb(0,102,128);stroke:rgb(7,7,7);stroke-width:0.86px;"/>
                    <rect id="rect1212" x="30.793" y="687.882" width="9.434" height="10.735" style="fill:rgb(22,68,80);stroke:rgb(7,7,7);stroke-width:0.86px;"/>
                    <rect id="rect1214" x="30.793" y="698.618" width="9.434" height="10.735" style="fill:rgb(0,68,85);stroke:rgb(7,7,7);stroke-width:0.86px;"/>
                    <rect id="rect1216" x="30.793" y="709.353" width="9.434" height="10.735" style="fill:rgb(42,212,255);stroke:rgb(7,7,7);stroke-width:0.86px;"/>
                    <rect id="rect1218" x="30.793" y="720.088" width="9.434" height="10.735" style="fill:rgb(215,238,244);stroke:rgb(7,7,7);stroke-width:0.86px;"/>
                </g>
            </g>
        </g>
    </g>
    <g id="annotate" transform="matrix(1,0,0,1,0,-85.0394)">
        <g id="path2115" transform="matrix(1,0,0,1,3.56368,1.26692)">
            <g transform="matrix(1,-0,-0,1,-3.56368,83.7725)">
                <path d="M73.584,105.193L78.579,107.945L73.38,110.29C74.705,109.067 74.807,106.518 73.584,105.193Z" style="fill:rgb(221,175,233);fill-rule:nonzero;"/>
                <path d="M68.799,95.29C68.799,95.29 63.828,99.721 65.047,103.394C65.699,105.355 67.008,107.223 74.501,107.782" style="fill:none;fill-rule:nonzero;stroke:rgb(221,175,233);stroke-width:1.42px;stroke-linecap:round;"/>
            </g>
        </g>
        <g transform="matrix(1.03313,0,0,0.967932,88.8796,189.849)">
            <g id="text2569">
                <text x="0px" y="0px" style="font-family:'LucidaGrande', 'Lucida Grande', sans-serif;font-weight:500;font-size:8.001px;fill:rgb(102,102,102);">2</text>
            </g>
        </g>
        <g transform="matrix(1.03313,0,0,0.967932,74.1474,179.67)">
            <g id="text2573">
                <text x="0px" y="0px" style="font-family:'LucidaGrande', 'Lucida Grande', sans-serif;font-weight:500;font-size:8.001px;fill:rgb(102,102,102);">1</text>
            </g>
        </g>
        <g transform="matrix(1.03313,0,0,0.967932,121.424,192.393)">
            <g id="text2577">
                <text x="0px" y="0px" style="font-family:'LucidaGrande', 'Lucida Grande', sans-serif;font-weight:500;font-size:8.001px;fill:rgb(102,102,102);">3</text>
            </g>
        </g>
        <path id="path2579" d="M117.788,194.983C117.788,194.983 110.898,201.896 101.914,202.198C96.704,202.374 93.222,199.696 87.54,196.305" style="fill:none;fill-rule:nonzero;stroke:rgb(255,170,238);stroke-width:1.42px;stroke-linecap:round;"/>
        <g id="path2581" transform="matrix(1,0,0,1,0.0578693,0.041229)">
            <g transform="matrix(1,-0,-0,1,-0.0578693,84.9981)">
                <path d="M89.556,116.942L85.247,109.604L93.703,110.56C91.07,111.119 88.997,114.31 89.556,116.942Z" style="fill:rgb(255,170,238);fill-rule:nonzero;"/>
                <path d="M117.788,109.867C117.788,109.867 111.037,117.554 101.443,117.506C98.12,117.49 94.173,115.34 90.353,112.922" style="fill:none;fill-rule:nonzero;stroke:rgb(255,170,238);stroke-width:0.51px;"/>
            </g>
        </g>
        <g transform="matrix(1,0,0,1,280.982,200.429)">
            <g id="text3464">
                <text x="0px" y="0px" style="font-family:'LucidaGrande', 'Lucida Grande', sans-serif;font-weight:500;font-size:18px;">Update Representations</text>
            </g>
        </g>
        <g transform="matrix(1,0,0,1,281.25,105.072)">
            <g id="text3441">
                <text x="0px" y="0px" style="font-family:'LucidaGrande', 'Lucida Grande', sans-serif;font-weight:500;font-size:18px;">Compute Messages</text>
            </g>
        </g>
        <g id="g3748" transform="matrix(1,0,0,1,24.1071,-4.82143)">
            <g>
                <g id="g3285" transform="matrix(0.769907,0,0,0.673137,338.471,-327.765)">
                    <rect id="rect3275" x="30.793" y="677.147" width="9.434" height="10.735" style="fill:rgb(83,103,108);stroke:rgb(7,7,7);stroke-width:0.86px;"/>
                    <rect id="rect3277" x="30.793" y="687.882" width="9.434" height="10.735" style="fill:rgb(42,212,255);stroke:rgb(7,7,7);stroke-width:0.86px;"/>
                    <rect id="rect3279" x="30.793" y="698.618" width="9.434" height="10.735" style="fill:rgb(219,226,227);stroke:rgb(7,7,7);stroke-width:0.86px;"/>
                    <rect id="rect3281" x="30.793" y="709.353" width="9.434" height="10.735" style="fill:rgb(255,170,238);stroke:rgb(7,7,7);stroke-width:0.86px;"/>
                    <rect id="rect3283" x="30.793" y="720.088" width="9.434" height="10.735" style="fill:rgb(244,215,238);stroke:rgb(7,7,7);stroke-width:0.86px;"/>
                    <g id="path3429" transform="matrix(0.343656,0,0,0.39306,-436.495,628.375)">
                        <path d="M1361.08,204.876L1361.08,179.821L1385.78,179.821L1385.78,204.876L1361.08,204.876Z" style="fill:rgb(244,215,238);fill-rule:nonzero;stroke:rgb(255,170,238);stroke-width:0.12px;stroke-linecap:round;"/>
                    </g>
                    <g id="path3431" transform="matrix(0.343656,0,0,0.39306,-436.495,628.375)">
                        <path d="M1361.08,177.494L1361.08,152.618L1385.78,152.618L1385.78,177.494L1361.08,177.494Z" style="fill:rgb(244,215,238);fill-rule:nonzero;stroke:rgb(255,170,238);stroke-width:0.12px;stroke-linecap:round;"/>
                    </g>
                    <g id="path3433" transform="matrix(0.343656,0,0,0.39306,-436.495,628.375)">
                        <path d="M1443.41,204.876L1443.41,179.821L1468.28,179.821L1468.28,204.876L1443.41,204.876Z" style="fill:rgb(244,215,238);fill-rule:nonzero;stroke:rgb(255,170,238);stroke-width:0.12px;stroke-linecap:round;"/>
                    </g>
                    <g id="path3435" transform="matrix(0.343656,0,0,0.39306,-436.495,628.375)">
                        <path d="M1443.41,204.876L1443.41,179.821L1468.28,179.821L1468.28,204.876L1443.41,204.876Z" style="fill:rgb(255,213,229);fill-rule:nonzero;stroke:rgb(255,170,238);stroke-width:0.12px;stroke-linecap:round;"/>
                    </g>
                    <g id="path3437" transform="matrix(0.343656,0,0,0.39306,-436.495,628.375)">
                        <path d="M1361.08,150.292L1361.08,125.237L1385.96,125.237L1385.96,150.292L1361.08,150.292Z" style="fill:rgb(255,213,229);fill-rule:nonzero;stroke:rgb(255,170,238);stroke-width:0.12px;stroke-linecap:round;"/>
                    </g>
                </g>
                <g id="g3297" transform="matrix(0.769907,0,0,0.673137,345.734,-327.765)">
                    <rect id="rect3287" x="30.793" y="677.147" width="9.434" height="10.735" style="fill:rgb(255,170,238);stroke:rgb(7,7,7);stroke-width:0.86px;"/>
                    <rect id="rect3289" x="30.793" y="687.882" width="9.434" height="10.735" style="fill:rgb(255,213,246);stroke:rgb(7,7,7);stroke-width:0.86px;"/>
                    <rect id="rect3291" x="30.793" y="698.618" width="9.434" height="10.735" style="fill:rgb(212,0,170);stroke:rgb(7,7,7);stroke-width:0.86px;"/>
                    <rect id="rect3293" x="30.793" y="709.353" width="9.434" height="10.735" style="fill:rgb(170,0,136);stroke:rgb(7,7,7);stroke-width:0.86px;"/>
                    <rect id="rect3295" x="30.793" y="720.088" width="9.434" height="10.735" style="fill:rgb(255,85,221);stroke:rgb(7,7,7);stroke-width:0.86px;"/>
                </g>
                <g id="g3309" transform="matrix(0.769907,0,0,0.673137,352.998,-327.765)">
                    <rect id="rect3299" x="30.793" y="677.147" width="9.434" height="10.735" style="fill:rgb(255,85,153);stroke:rgb(7,7,7);stroke-width:0.86px;"/>
                    <rect id="rect3301" x="30.793" y="687.882" width="9.434" height="10.735" style="fill:rgb(212,0,170);stroke:rgb(7,7,7);stroke-width:0.86px;"/>
                    <rect id="rect3303" x="30.793" y="698.618" width="9.434" height="10.735" style="fill:rgb(211,95,188);stroke:rgb(7,7,7);stroke-width:0.86px;"/>
                    <rect id="rect3305" x="30.793" y="709.353" width="9.434" height="10.735" style="fill:rgb(244,215,238);stroke:rgb(7,7,7);stroke-width:0.86px;"/>
                    <rect id="rect3307" x="30.793" y="720.088" width="9.434" height="10.735" style="fill:rgb(255,85,153);stroke:rgb(7,7,7);stroke-width:0.86px;"/>
                </g>
                <g id="g3321" transform="matrix(0.769907,0,0,0.673137,360.261,-327.765)">
                    <rect id="rect3311" x="30.793" y="677.147" width="9.434" height="10.735" style="fill:rgb(255,170,238);stroke:rgb(7,7,7);stroke-width:0.86px;"/>
                    <rect id="rect3313" x="30.793" y="687.882" width="9.434" height="10.735" style="fill:rgb(85,0,68);stroke:rgb(7,7,7);stroke-width:0.86px;"/>
                    <rect id="rect3315" x="30.793" y="698.618" width="9.434" height="10.735" style="fill:rgb(255,213,246);stroke:rgb(7,7,7);stroke-width:0.86px;"/>
                    <rect id="rect3317" x="30.793" y="709.353" width="9.434" height="10.735" style="fill:rgb(255,128,229);stroke:rgb(7,7,7);stroke-width:0.86px;"/>
                    <rect id="rect3319" x="30.793" y="720.088" width="9.434" height="10.735" style="fill:rgb(255,85,221);stroke:rgb(7,7,7);stroke-width:0.86px;"/>
                </g>
                <rect id="rect3323" x="391.232" y="128.048" width="7.263" height="7.226" style="fill:rgb(85,0,34);stroke:rgb(7,7,7);stroke-width:0.62px;"/>
                <rect id="rect3325" x="391.232" y="135.274" width="7.263" height="7.226" style="fill:rgb(212,0,85);stroke:rgb(7,7,7);stroke-width:0.62px;"/>
                <rect id="rect3327" x="391.232" y="142.501" width="7.263" height="7.226" style="fill:rgb(255,170,204);stroke:rgb(7,7,7);stroke-width:0.62px;"/>
                <rect id="rect3329" x="391.232" y="149.727" width="7.263" height="7.226" style="fill:rgb(233,175,198);stroke:rgb(7,7,7);stroke-width:0.62px;"/>
                <rect id="rect3331" x="391.232" y="156.953" width="7.263" height="7.226" style="fill:rgb(160,44,90);stroke:rgb(7,7,7);stroke-width:0.62px;"/>
            </g>
            <g transform="matrix(1,0,0,1,88.0593,0)">
                <g id="g32851" serif:id="g3285" transform="matrix(0.769907,0,0,0.673137,338.471,-327.765)">
                    <rect id="rect32751" serif:id="rect3275" x="30.793" y="677.147" width="9.434" height="10.735" style="fill:rgb(83,103,108);stroke:rgb(7,7,7);stroke-width:0.86px;"/>
                    <rect id="rect32771" serif:id="rect3277" x="30.793" y="687.882" width="9.434" height="10.735" style="fill:rgb(42,212,255);stroke:rgb(7,7,7);stroke-width:0.86px;"/>
                    <rect id="rect32791" serif:id="rect3279" x="30.793" y="698.618" width="9.434" height="10.735" style="fill:rgb(219,226,227);stroke:rgb(7,7,7);stroke-width:0.86px;"/>
                    <rect id="rect32811" serif:id="rect3281" x="30.793" y="709.353" width="9.434" height="10.735" style="fill:rgb(255,170,238);stroke:rgb(7,7,7);stroke-width:0.86px;"/>
                    <rect id="rect32831" serif:id="rect3283" x="30.793" y="720.088" width="9.434" height="10.735" style="fill:rgb(244,215,238);stroke:rgb(7,7,7);stroke-width:0.86px;"/>
                    <g id="path34291" serif:id="path3429" transform="matrix(0.343656,0,0,0.39306,-436.495,628.375)">
                        <path d="M1361.08,204.876L1361.08,179.821L1385.78,179.821L1385.78,204.876L1361.08,204.876Z" style="fill:rgb(244,215,238);fill-rule:nonzero;stroke:rgb(255,170,238);stroke-width:0.12px;stroke-linecap:round;"/>
                    </g>
                    <g id="path34311" serif:id="path3431" transform="matrix(0.343656,0,0,0.39306,-436.495,628.375)">
                        <path d="M1361.08,177.494L1361.08,152.618L1385.78,152.618L1385.78,177.494L1361.08,177.494Z" style="fill:rgb(244,215,238);fill-rule:nonzero;stroke:rgb(255,170,238);stroke-width:0.12px;stroke-linecap:round;"/>
                    </g>
                    <g id="path34331" serif:id="path3433" transform="matrix(0.343656,0,0,0.39306,-436.495,628.375)">
                        <path d="M1443.41,204.876L1443.41,179.821L1468.28,179.821L1468.28,204.876L1443.41,204.876Z" style="fill:rgb(244,215,238);fill-rule:nonzero;stroke:rgb(255,170,238);stroke-width:0.12px;stroke-linecap:round;"/>
                    </g>
                    <g id="path34351" serif:id="path3435" transform="matrix(0.343656,0,0,0.39306,-436.495,628.375)">
                        <path d="M1443.41,204.876L1443.41,179.821L1468.28,179.821L1468.28,204.876L1443.41,204.876Z" style="fill:rgb(255,213,229);fill-rule:nonzero;stroke:rgb(255,170,238);stroke-width:0.12px;stroke-linecap:round;"/>
                    </g>
                    <g id="path34371" serif:id="path3437" transform="matrix(0.343656,0,0,0.39306,-436.495,628.375)">
                        <path d="M1361.08,150.292L1361.08,125.237L1385.96,125.237L1385.96,150.292L1361.08,150.292Z" style="fill:rgb(255,213,229);fill-rule:nonzero;stroke:rgb(255,170,238);stroke-width:0.12px;stroke-linecap:round;"/>
                    </g>
                </g>
                <g id="g32971" serif:id="g3297" transform="matrix(0.769907,0,0,0.673137,345.734,-327.765)">
                    <rect id="rect32871" serif:id="rect3287" x="30.793" y="677.147" width="9.434" height="10.735" style="fill:rgb(255,170,238);stroke:rgb(7,7,7);stroke-width:0.86px;"/>
                    <rect id="rect32891" serif:id="rect3289" x="30.793" y="687.882" width="9.434" height="10.735" style="fill:rgb(255,213,246);stroke:rgb(7,7,7);stroke-width:0.86px;"/>
                    <rect id="rect32911" serif:id="rect3291" x="30.793" y="698.618" width="9.434" height="10.735" style="fill:rgb(212,0,170);stroke:rgb(7,7,7);stroke-width:0.86px;"/>
                    <rect id="rect32931" serif:id="rect3293" x="30.793" y="709.353" width="9.434" height="10.735" style="fill:rgb(170,0,136);stroke:rgb(7,7,7);stroke-width:0.86px;"/>
                    <rect id="rect32951" serif:id="rect3295" x="30.793" y="720.088" width="9.434" height="10.735" style="fill:rgb(255,85,221);stroke:rgb(7,7,7);stroke-width:0.86px;"/>
                </g>
                <g id="g33091" serif:id="g3309" transform="matrix(0.769907,0,0,0.673137,352.998,-327.765)">
                    <rect id="rect32991" serif:id="rect3299" x="30.793" y="677.147" width="9.434" height="10.735" style="fill:rgb(255,85,153);stroke:rgb(7,7,7);stroke-width:0.86px;"/>
                    <rect id="rect33011" serif:id="rect3301" x="30.793" y="687.882" width="9.434" height="10.735" style="fill:rgb(212,0,170);stroke:rgb(7,7,7);stroke-width:0.86px;"/>
                    <rect id="rect33031" serif:id="rect3303" x="30.793" y="698.618" width="9.434" height="10.735" style="fill:rgb(211,95,188);stroke:rgb(7,7,7);stroke-width:0.86px;"/>
                    <rect id="rect33051" serif:id="rect3305" x="30.793" y="709.353" width="9.434" height="10.735" style="fill:rgb(244,215,238);stroke:rgb(7,7,7);stroke-width:0.86px;"/>
                    <rect id="rect33071" serif:id="rect3307" x="30.793" y="720.088" width="9.434" height="10.735" style="fill:rgb(255,85,153);stroke:rgb(7,7,7);stroke-width:0.86px;"/>
                </g>
                <g id="g33211" serif:id="g3321" transform="matrix(0.769907,0,0,0.673137,360.261,-327.765)">
                    <rect id="rect33111" serif:id="rect3311" x="30.793" y="677.147" width="9.434" height="10.735" style="fill:rgb(255,170,238);stroke:rgb(7,7,7);stroke-width:0.86px;"/>
                    <rect id="rect33131" serif:id="rect3313" x="30.793" y="687.882" width="9.434" height="10.735" style="fill:rgb(85,0,68);stroke:rgb(7,7,7);stroke-width:0.86px;"/>
                    <rect id="rect33151" serif:id="rect3315" x="30.793" y="698.618" width="9.434" height="10.735" style="fill:rgb(255,213,246);stroke:rgb(7,7,7);stroke-width:0.86px;"/>
                    <rect id="rect33171" serif:id="rect3317" x="30.793" y="709.353" width="9.434" height="10.735" style="fill:rgb(255,128,229);stroke:rgb(7,7,7);stroke-width:0.86px;"/>
                    <rect id="rect33191" serif:id="rect3319" x="30.793" y="720.088" width="9.434" height="10.735" style="fill:rgb(255,85,221);stroke:rgb(7,7,7);stroke-width:0.86px;"/>
                </g>
                <rect id="rect33231" serif:id="rect3323" x="391.232" y="128.048" width="7.263" height="7.226" style="fill:rgb(85,0,34);stroke:rgb(7,7,7);stroke-width:0.62px;"/>
                <rect id="rect33251" serif:id="rect3325" x="391.232" y="135.274" width="7.263" height="7.226" style="fill:rgb(212,0,85);stroke:rgb(7,7,7);stroke-width:0.62px;"/>
                <rect id="rect33271" serif:id="rect3327" x="391.232" y="142.501" width="7.263" height="7.226" style="fill:rgb(255,170,204);stroke:rgb(7,7,7);stroke-width:0.62px;"/>
                <rect id="rect33291" serif:id="rect3329" x="391.232" y="149.727" width="7.263" height="7.226" style="fill:rgb(233,175,198);stroke:rgb(7,7,7);stroke-width:0.62px;"/>
                <rect id="rect33311" serif:id="rect3331" x="391.232" y="156.953" width="7.263" height="7.226" style="fill:rgb(160,44,90);stroke:rgb(7,7,7);stroke-width:0.62px;"/>
            </g>
            <g id="g3561">
                <g transform="matrix(1,0,0,1,341.518,148.197)">
                    <g id="text3189">
                        <text x="0px" y="0px" style="font-family:'LucidaGrande', 'Lucida Grande', sans-serif;font-weight:500;font-size:18px;">=</text>
                    </g>
                </g>
                <g id="g3239" transform="matrix(0.627322,0,0,0.844675,483.852,-450.107)">
                    <rect id="rect3229" x="30.793" y="677.147" width="9.434" height="10.735" style="fill:rgb(213,246,255);stroke:rgb(7,7,7);stroke-width:0.86px;"/>
                    <rect id="rect3231" x="30.793" y="687.882" width="9.434" height="10.735" style="fill:rgb(55,171,200);stroke:rgb(7,7,7);stroke-width:0.86px;"/>
                    <rect id="rect3233" x="30.793" y="698.618" width="9.434" height="10.735" style="fill:rgb(0,68,85);stroke:rgb(7,7,7);stroke-width:0.86px;"/>
                    <rect id="rect3235" x="30.793" y="709.353" width="9.434" height="10.735" style="fill:rgb(219,226,227);stroke:rgb(7,7,7);stroke-width:0.86px;"/>
                    <rect id="rect3237" x="30.793" y="720.088" width="9.434" height="10.735" style="fill:rgb(175,221,233);stroke:rgb(7,7,7);stroke-width:0.86px;"/>
                </g>
                <g id="g3221" transform="matrix(0.627322,0,0,0.844675,395.778,-449.596)">
                    <rect id="rect3211" x="30.793" y="677.147" width="9.434" height="10.735" style="fill:rgb(83,103,108);stroke:rgb(7,7,7);stroke-width:0.86px;"/>
                    <rect id="rect3213" x="30.793" y="687.882" width="9.434" height="10.735" style="fill:rgb(42,212,255);stroke:rgb(7,7,7);stroke-width:0.86px;"/>
                    <rect id="rect3215" x="30.793" y="698.618" width="9.434" height="10.735" style="fill:rgb(219,226,227);stroke:rgb(7,7,7);stroke-width:0.86px;"/>
                    <rect id="rect3217" x="30.793" y="709.353" width="9.434" height="10.735" style="fill:rgb(55,171,200);stroke:rgb(7,7,7);stroke-width:0.86px;"/>
                    <rect id="rect3219" x="30.793" y="720.088" width="9.434" height="10.735" style="fill:rgb(213,229,255);stroke:rgb(7,7,7);stroke-width:0.86px;"/>
                </g>
                <g id="text3263">
                </g>
            </g>
        </g>
        <g transform="matrix(1,0,0,1,361.607,235.25)">
            <g id="text3476">
                <text x="0px" y="0px" style="font-family:'LucidaGrande', 'Lucida Grande', sans-serif;font-weight:500;font-size:18px;">=</text>
            </g>
        </g>
        <g transform="matrix(1,0,0,1,385.446,237.125)">
            <g id="text3482">
                <text x="0px" y="0px" style="font-family:'LucidaGrande', 'Lucida Grande', sans-serif;font-weight:500;font-size:18px;">GRU</text>
            </g>
        </g>
        <g transform="matrix(1,0,0,1,430.179,236.054)">
            <g id="text3488">
                <text x="0px" y="0px" style="font-family:'LucidaGrande', 'Lucida Grande', sans-serif;font-weight:500;font-size:18px;">(</text>
            </g>
        </g>
        <g transform="matrix(1,0,0,1,467.411,242.482)">
            <g id="text3492">
                <text x="0px" y="0px" style="font-family:'LucidaGrande', 'Lucida Grande', sans-serif;font-weight:500;font-size:18px;">,</text>
            </g>
        </g>
        <g transform="matrix(1,0,0,1,506.25,234.447)">
            <g id="text3496">
                <text x="0px" y="0px" style="font-family:'LucidaGrande', 'Lucida Grande', sans-serif;font-weight:500;font-size:18px;">)</text>
            </g>
        </g>
        <g id="g3760" transform="matrix(0.627322,0,0,0.844675,467.319,-363.993)">
            <rect id="rect3750" x="30.793" y="677.147" width="9.434" height="10.735" style="fill:rgb(44,137,160);stroke:rgb(7,7,7);stroke-width:0.86px;"/>
            <rect id="rect3752" x="30.793" y="687.882" width="9.434" height="10.735" style="fill:rgb(44,137,160);stroke:rgb(7,7,7);stroke-width:0.86px;"/>
            <rect id="rect3754" x="30.793" y="698.618" width="9.434" height="10.735" style="fill:rgb(0,68,85);stroke:rgb(7,7,7);stroke-width:0.86px;"/>
            <rect id="rect3756" x="30.793" y="709.353" width="9.434" height="10.735" style="fill:rgb(183,196,200);stroke:rgb(7,7,7);stroke-width:0.86px;"/>
            <rect id="rect3758" x="30.793" y="720.088" width="9.434" height="10.735" style="fill:rgb(219,226,227);stroke:rgb(7,7,7);stroke-width:0.86px;"/>
        </g>
        <g id="g3808" transform="matrix(0.627322,0,0,0.844675,428.747,-364.529)">
            <rect id="rect3798" x="30.793" y="677.147" width="9.434" height="10.735" style="fill:rgb(198,175,233);stroke:rgb(7,7,7);stroke-width:0.86px;"/>
            <rect id="rect3800" x="30.793" y="687.882" width="9.434" height="10.735" style="fill:rgb(127,42,255);stroke:rgb(7,7,7);stroke-width:0.86px;"/>
            <rect id="rect3802" x="30.793" y="698.618" width="9.434" height="10.735" style="fill:rgb(0,68,85);stroke:rgb(7,7,7);stroke-width:0.86px;"/>
            <rect id="rect3804" x="30.793" y="709.353" width="9.434" height="10.735" style="fill:rgb(128,128,255);stroke:rgb(7,7,7);stroke-width:0.86px;"/>
            <rect id="rect3806" x="30.793" y="720.088" width="9.434" height="10.735" style="fill:rgb(170,170,255);stroke:rgb(7,7,7);stroke-width:0.86px;"/>
        </g>
        <g transform="matrix(2e-06,0,0,2e-06,354.944,96.2099)">
            <path d="M0,122C60,14 97,6 101,2C105,6 32,7 104,25C49,27 98,25 115,21C54,70 61,88 115,20C114,19 69,0 50,0C71,49 52,23 49,11C50,14 108,56 56,71C50,17 120,71 90,16C52,61 34,60 65,57C65,56 57,34 105,23C98,36 68,46 83,19C77,2 70,46 49,38C88,67 87,79 113,17C55,22 66,49 118,19C113,7 121,49 111,43C54,47 98,14 120,35C115,57 57,11 112,1C87,38 90,6 114,41C74,54 77,15 109,37C111,32 43,18 57,5C88,55 106,17 49,12C57,2 53,65 43,33C97,35 101,18 114,41C99,55 104,71 80,5C53,32 54,23 73,43C90,45 71,65 102,65C100,19 112,8 54,2C117,24 87,66 88,6C48,7 55,5 51,4C53,56 43,20 67,11C113,25 78,53 69,22C111,19 69,33 57,37C79,66 67,25 99,17C90,10 119,0 68,54C97,38 116,35 70,49C117,57 48,73 89,3C118,7 118,66 49,11C81,9 122,39 76,69C97,47 89,2 57,41C85,21 83,18 89,1C103,11 50,36 101,14C50,56 122,39 103,49C85,0 72,8 84,71C113,13 88,68 54,70C86,34 99,43 116,53C113,66 110,52 81,19C82,67 49,20 47,5C111,43 73,10 73,49C75,19 51,18 87,43C117,43 53,66 98,51C84,67 69,1 106,50C65,68 75,71 85,38C84,35 78,45 120,12C104,49 79,69 90,47C76,47 106,72 48,71C110,9 71,38 113,0C121,19 67,52 107,24C74,42 71,16 82,34C102,72 43,15 87,51C103,65 70,33 71,22C122,52 76,9 90,39C56,38 47,75 77,68C105,41 109,4 47,32C84,48 79,54 70,37C107,7 87,18 77,43C72,49 82,55 105,8C65,57 50,33 111,7C84,3 113,39 87,33C75,51 97,0 73,16C76,55 67,18 78,16C105,1 114,32 69,8C122,14 76,68 43,39C53,15 88,36 117,68C122,21 80,52 120,35C97,8 100,69 72,37C85,70 103,36 77,70C66,3 43,5 111,57C98,71 85,49 99,51C69,52 68,3 68,47C47,3 53,16 119,69C76,66 54,67 56,67C69,33 76,38 106,69C122,16 72,66 103,20C80,69 65,2 106,40C107,5 119,61 60,75C108,25 116,21 120,17C116,60 0,122 0,122Z" style="fill:none;fill-rule:nonzero;stroke:black;stroke-opacity:0;stroke-width:184317px;stroke-miterlimit:10;"/>
        </g>
        <g transform="matrix(0.317057,0,0,0.317057,396.413,162.588)">
            <path d="M37.642,2.735C37.858,2.124 37.894,2.052 39.006,1.945C39.725,1.874 40.48,1.874 41.055,1.874L41.055,0.184C40.084,0.22 38.828,0.292 37.211,0.292C35.847,0.292 33.62,0.292 32.327,0.184L32.327,1.874C33.225,1.874 34.948,1.874 35.991,2.267L29.813,18.322L23.456,1.874L26.905,1.874L26.905,0.184C25.539,0.292 22.163,0.292 20.619,0.292C19.219,0.292 16.381,0.292 15.123,0.184L15.123,1.874L18.213,1.874L19.686,5.68L14.802,18.322L8.444,1.874L11.892,1.874L11.892,0.184C10.527,0.292 7.152,0.292 5.606,0.292C4.206,0.292 1.369,0.292 0.113,0.184L0.113,1.874L3.2,1.874L11.82,24.175C12.036,24.75 12.18,25.11 13.077,25.11C13.975,25.11 14.119,24.75 14.334,24.175L20.583,8.014L26.833,24.175C27.047,24.75 27.191,25.11 28.089,25.11C28.988,25.11 29.131,24.75 29.345,24.175L37.642,2.735" style="fill:rgb(153,153,153);fill-rule:nonzero;"/>
        </g>
        <g transform="matrix(0.317057,0,0,0.317057,486.028,162.588)">
            <path d="M37.642,2.735C37.858,2.124 37.894,2.052 39.006,1.945C39.725,1.874 40.48,1.874 41.055,1.874L41.055,0.184C40.084,0.22 38.828,0.292 37.211,0.292C35.847,0.292 33.62,0.292 32.327,0.184L32.327,1.874C33.225,1.874 34.948,1.874 35.991,2.267L29.813,18.322L23.456,1.874L26.905,1.874L26.905,0.184C25.539,0.292 22.163,0.292 20.619,0.292C19.219,0.292 16.381,0.292 15.123,0.184L15.123,1.874L18.213,1.874L19.686,5.68L14.802,18.322L8.444,1.874L11.892,1.874L11.892,0.184C10.527,0.292 7.152,0.292 5.606,0.292C4.206,0.292 1.369,0.292 0.113,0.184L0.113,1.874L3.2,1.874L11.82,24.175C12.036,24.75 12.18,25.11 13.077,25.11C13.975,25.11 14.119,24.75 14.334,24.175L20.583,8.014L26.833,24.175C27.047,24.75 27.191,25.11 28.089,25.11C28.988,25.11 29.131,24.75 29.345,24.175L37.642,2.735" style="fill:rgb(153,153,153);fill-rule:nonzero;"/>
        </g>
        <g transform="matrix(2e-06,0,0,2e-06,403.509,170.549)">
            <path d="M0,122C60,14 97,6 101,2C105,6 32,7 104,25C49,27 98,25 115,21C54,70 61,88 121,53C99,0 71,36 81,2C119,38 101,68 53,3C97,42 106,68 111,12C106,39 108,43 43,47C52,61 34,60 65,57C65,56 56,34 105,23C98,36 68,46 83,19C77,2 70,46 49,38C88,67 87,79 113,17C55,22 66,49 118,19C113,7 120,49 81,22C48,36 51,24 105,7C89,56 47,33 68,17C87,38 90,6 114,41C84,51 90,49 55,19C104,14 54,52 43,70C99,25 71,49 87,75C47,51 110,34 57,16C50,7 53,55 87,3C56,53 68,5 102,23C83,66 52,65 81,39C75,52 81,22 102,65C100,19 112,8 54,2C117,24 87,66 88,6C48,7 55,5 51,4C53,56 43,20 67,11C90,21 74,37 77,65C53,15 115,33 120,73C74,68 67,51 83,68C70,70 69,3 86,47C51,15 107,74 112,73C69,19 101,38 115,33C51,66 55,66 57,18C80,34 82,7 84,9C65,39 99,48 57,1C77,68 86,55 73,37C106,47 75,36 72,12C115,40 120,36 69,41C90,5 49,10 118,73C120,2 113,79 52,23C90,48 86,70 79,25C108,57 106,15 97,75C47,44 85,24 120,55C121,44 117,53 73,13C113,38 70,22 122,74C51,41 122,68 104,51C119,39 83,20 108,12C113,10 52,41 108,14C89,0 114,15 88,37C115,36 106,24 106,2C115,71 110,17 75,38C109,0 121,11 67,53C115,24 90,42 73,32C109,8 118,0 99,1C71,18 107,0 105,41C73,67 79,37 116,11C108,8 50,32 43,48C47,34 84,38 71,66C56,16 79,18 107,18C83,69 89,11 117,42C119,14 81,39 106,45C110,7 102,54 73,41C109,16 79,37 69,74C115,11 48,66 74,13C74,35 120,53 78,35C86,11 83,1 114,32C69,8 122,14 107,73C100,48 54,68 76,9C49,25 114,34 57,67C86,47 47,39 97,4C111,3 103,12 99,57C114,12 52,45 69,14C49,43 69,43 71,6C65,53 66,19 113,21C52,40 88,21 72,43C79,66 79,43 47,43C120,72 75,74 52,43C81,67 120,75 65,50C122,5 99,42 122,4C83,40 66,3 61,61C60,75 108,25 116,21C120,17 116,60 0,122Z" style="fill:none;fill-rule:nonzero;stroke:black;stroke-opacity:0;stroke-width:196952px;stroke-miterlimit:10;"/>
        </g>
        <g transform="matrix(0.503684,0,0,0.503684,331.91,177.374)">
            <g transform="matrix(1,0,0,1,0,88.5145)">
                <path d="M2.866,14.057L2.866,25.155L0.388,25.155L0.388,26.843C1.395,26.807 3.549,26.735 4.913,26.735C6.315,26.735 8.434,26.807 9.44,26.843L9.44,25.155L6.962,25.155L6.962,17.649C6.962,13.734 10.085,11.974 12.312,11.974C13.534,11.974 14.324,12.693 14.324,15.459L14.324,25.155L11.846,25.155L11.846,26.843C12.851,26.807 15.005,26.735 16.371,26.735C17.771,26.735 19.89,26.807 20.896,26.843L20.896,25.155L18.418,25.155L18.418,17.649C18.418,13.734 21.543,11.974 23.77,11.974C24.99,11.974 25.78,12.693 25.78,15.459L25.78,25.155L23.302,25.155L23.302,26.843C24.307,26.807 26.462,26.735 27.827,26.735C29.227,26.735 31.346,26.807 32.352,26.843L32.352,25.155L29.874,25.155L29.874,15.854C29.874,12.154 28.043,10.682 24.343,10.682C21.076,10.682 19.209,12.477 18.274,14.129C17.555,10.79 14.252,10.682 12.887,10.682C9.762,10.682 7.715,12.298 6.566,14.56L6.566,10.682L0.388,10.97L0.388,12.657C2.615,12.657 2.866,12.657 2.866,14.057" style="fill-rule:nonzero;"/>
            </g>
            <g transform="matrix(1,0,0,1,0,59.6613)">
                <path d="M39.238,30.996L41.795,30.996C42.271,30.996 42.596,30.996 42.596,30.445C42.596,30.093 42.271,30.093 41.845,30.093L39.463,30.093L40.391,26.384C40.416,26.259 40.466,26.134 40.466,26.034C40.466,25.582 40.115,25.232 39.615,25.232C38.988,25.232 38.612,25.657 38.437,26.309C38.26,26.935 38.587,25.732 37.484,30.093L34.927,30.093C34.451,30.093 34.126,30.093 34.126,30.645C34.126,30.996 34.426,30.996 34.877,30.996L37.259,30.996L35.779,36.912C35.629,37.538 35.404,38.44 35.404,38.766C35.404,40.245 36.657,41.146 38.085,41.146C40.868,41.146 42.446,37.638 42.446,37.312C42.446,36.987 42.121,36.987 42.046,36.987C41.745,36.987 41.72,37.037 41.52,37.462C40.818,39.041 39.538,40.445 38.16,40.445C37.634,40.445 37.284,40.12 37.284,39.216C37.284,38.966 37.384,38.44 37.434,38.19L39.238,30.996" style="fill-rule:nonzero;"/>
            </g>
            <g transform="matrix(1,0,0,1,0,105.833)">
                <path d="M45.73,13.863L44.877,13.863C44.802,14.413 44.552,15.893 44.226,16.143C44.026,16.295 42.096,16.295 41.745,16.295L37.134,16.295C39.765,13.963 40.641,13.262 42.146,12.084C44.001,10.604 45.73,9.051 45.73,6.669C45.73,3.637 43.073,1.782 39.865,1.782C36.757,1.782 34.652,3.963 34.652,6.268C34.652,7.546 35.729,7.673 35.98,7.673C36.582,7.673 37.309,7.246 37.309,6.343C37.309,5.893 37.134,5.015 35.829,5.015C36.607,3.235 38.31,2.684 39.488,2.684C41.995,2.684 43.299,4.64 43.299,6.669C43.299,8.849 41.745,10.579 40.943,11.482L34.902,17.446C34.652,17.673 34.652,17.723 34.652,18.424L44.977,18.424L45.73,13.863" style="fill-rule:nonzero;"/>
            </g>
            <g transform="matrix(2e-06,0,0,2e-06,23,105.539)">
                <path d="M0,122C60,14 97,6 101,2C105,6 32,7 104,25C49,27 98,25 115,21C54,70 61,88 69,56C48,68 112,24 113,73C55,3 113,7 83,47C49,20 120,17 54,66C118,75 56,38 115,33C77,61 34,60 65,57C65,56 57,34 105,23C98,36 66,44 84,3C73,2 70,50 121,46C88,70 104,20 113,53C99,4 106,23 84,53C69,65 107,14 74,43C113,44 54,45 85,16C74,19 73,13 115,48C66,5 54,37 74,54C50,65 50,74 88,41C51,32 56,54 43,66C101,44 65,33 114,75C52,34 98,75 52,24C117,67 65,50 66,39C100,10 77,10 108,69C76,72 56,68 81,23C121,32 78,9 55,67C55,40 84,35 49,16C99,72 116,70 114,24C112,32 51,22 118,20C50,54 56,5 70,40C87,74 101,48 73,8C82,52 73,18 54,10C104,3 66,8 121,10C109,15 76,23 77,45C112,3 43,2 111,14C103,53 110,50 97,55C121,37 51,13 100,2C54,10 48,17 121,39C57,72 89,25 85,73C47,19 107,35 81,18C73,65 104,33 113,22C56,38 50,49 121,54C77,56 87,0 81,25C49,4 66,5 87,47C87,71 88,12 81,47C118,53 121,74 107,52C99,16 81,50 53,25C47,21 77,55 75,48C111,44 73,41 106,8C88,5 101,13 53,7C47,56 81,8 119,3C105,12 115,73 73,4C48,38 84,51 90,49C74,50 116,51 117,10C120,49 74,9 80,69C50,12 110,9 69,0C113,3 120,40 71,55C110,67 112,53 70,0C57,20 100,51 105,11C88,35 85,2 72,33C121,39 121,14 88,4C89,1 56,38 43,4C109,69 106,3 48,15C43,32 106,56 78,54C74,36 107,23 67,18C79,43 84,49 83,1C67,6 67,41 75,37C111,45 110,73 113,55C105,35 73,72 75,1C74,16 114,54 65,2C116,9 105,39 76,23C70,24 47,4 73,9C97,22 101,9 88,8C49,68 100,36 101,4C78,47 55,0 79,11C112,3 65,9 100,3C68,18 53,23 81,57C78,5 111,41 107,6C73,47 68,19 71,36C55,18 122,34 108,1C88,10 120,71 53,72C77,2 87,12 68,1C110,35 80,70 65,79C102,0 66,67 69,9C107,9 103,61 60,75C108,25 116,21 120,17C116,60 0,122 0,122Z" style="fill:none;fill-rule:nonzero;stroke:black;stroke-opacity:0;stroke-width:198537px;stroke-miterlimit:10;"/>
            </g>
        </g>
        <g transform="matrix(0.543529,0,0,0.543529,453.942,133.04)">
            <path d="M12.752,13.685L22.772,13.685C23.275,13.685 23.957,13.685 23.957,12.968C23.957,12.249 23.275,12.249 22.772,12.249L12.752,12.249L12.752,2.193C12.752,1.69 12.752,1.009 12.033,1.009C11.315,1.009 11.315,1.69 11.315,2.193L11.315,12.249L1.26,12.249C0.757,12.249 0.074,12.249 0.074,12.968C0.074,13.685 0.757,13.685 1.26,13.685L11.315,13.685L11.315,23.742C11.315,24.245 11.315,24.928 12.033,24.928C12.752,24.928 12.752,24.245 12.752,23.742L12.752,13.685" style="fill-rule:nonzero;"/>
        </g>
        <g transform="matrix(2e-06,0,0,2e-06,460.465,140.343)">
            <path d="M0,122C60,14 97,6 101,2C105,6 32,7 104,25C49,27 98,25 115,21C54,70 61,88 53,19C85,10 69,5 101,21C109,49 79,10 76,70C107,22 113,70 66,9C47,65 43,67 119,65C81,61 34,60 65,57C65,56 54,50 105,23C98,36 68,46 83,19C78,56 69,43 121,44C114,2 104,20 85,33C57,21 66,11 77,19C67,51 70,34 65,5C111,6 54,45 86,16C65,5 89,56 121,40C74,13 74,67 51,48C109,44 110,32 90,35C90,35 67,55 70,20C52,45 87,54 73,14C55,65 74,51 47,79C106,32 78,15 68,69C112,33 48,52 66,37C100,22 80,22 70,39C83,55 97,79 79,68C51,74 53,5 98,34C49,16 99,1 117,75C88,22 106,32 51,22C115,75 75,56 52,21C78,34 87,23 75,11C89,44 70,11 116,33C116,41 79,9 85,34C67,48 68,23 79,44C119,50 97,17 107,53C97,56 119,52 89,3C117,10 118,69 114,39C100,37 109,7 102,1C119,33 119,38 57,55C77,68 107,54 122,15C106,56 111,8 49,39C57,68 120,32 74,24C100,5 99,19 113,66C84,46 83,57 107,1C49,50 114,52 114,72C52,75 90,13 109,53C48,16 66,56 116,21C53,70 98,13 76,66C67,36 87,51 77,70C72,38 81,16 102,36C109,52 65,72 111,19C80,7 87,55 112,10C104,44 113,20 122,57C43,22 107,16 79,8C57,53 107,33 75,73C118,39 107,46 110,68C101,72 74,55 73,68C51,50 85,35 65,67C73,72 113,51 101,6C109,24 105,20 57,69C110,22 83,53 49,75C54,53 121,1 81,73C75,44 108,17 85,32C103,47 89,13 73,1C43,69 114,74 117,37C74,13 120,44 103,39C121,18 83,71 116,2C73,72 112,49 111,1C89,67 77,10 50,56C67,66 53,32 100,34C83,20 79,1 55,52C88,47 78,75 86,47C113,34 113,24 120,32C71,50 69,0 105,52C99,75 68,19 67,9C112,3 68,0 86,11C65,57 79,53 90,71C105,52 78,79 102,40C101,34 72,21 110,33C57,52 97,66 55,48C90,11 55,18 68,69C122,42 72,71 86,14C106,46 115,61 60,75C108,25 116,21 120,17C116,60 0,122 0,122Z" style="fill:none;fill-rule:nonzero;stroke:black;stroke-opacity:0;stroke-width:183983px;stroke-miterlimit:10;"/>
        </g>
        <g transform="matrix(0.212203,0,0,0.212203,386.758,117.548)">
            <g transform="matrix(1,0,0,1,228.072,233.979)">
                <path d="M3.544,14.169L3.544,25.267L1.066,25.267L1.066,26.955C2.073,26.919 4.227,26.847 5.591,26.847C6.993,26.847 9.112,26.919 10.118,26.955L10.118,25.267L7.64,25.267L7.64,17.761C7.64,13.846 10.763,12.086 12.99,12.086C14.212,12.086 15.002,12.805 15.002,15.571L15.002,25.267L12.524,25.267L12.524,26.955C13.529,26.919 15.683,26.847 17.049,26.847C18.449,26.847 20.568,26.919 21.574,26.955L21.574,25.267L19.096,25.267L19.096,17.761C19.096,13.846 22.221,12.086 24.448,12.086C25.668,12.086 26.458,12.805 26.458,15.571L26.458,25.267L23.98,25.267L23.98,26.955C24.985,26.919 27.14,26.847 28.505,26.847C29.905,26.847 32.024,26.919 33.03,26.955L33.03,25.267L30.552,25.267L30.552,15.966C30.552,12.266 28.721,10.794 25.021,10.794C21.754,10.794 19.887,12.589 18.952,14.241C18.233,10.902 14.93,10.794 13.565,10.794C10.44,10.794 8.393,12.41 7.244,14.672L7.244,10.794L1.066,11.082L1.066,12.769C3.293,12.769 3.544,12.769 3.544,14.169" style="fill:rgb(135,135,135);fill-rule:nonzero;"/>
            </g>
            <g transform="matrix(1,0,0,1,228.072,204.126)">
                <path d="M40.016,31.608L42.573,31.608C43.049,31.608 43.374,31.608 43.374,31.057C43.374,30.705 43.049,30.705 42.623,30.705L40.241,30.705L41.169,26.996C41.194,26.871 41.244,26.746 41.244,26.646C41.244,26.194 40.893,25.844 40.393,25.844C39.766,25.844 39.39,26.269 39.215,26.921C39.038,27.547 39.365,26.344 38.262,30.705L35.705,30.705C35.229,30.705 34.904,30.705 34.904,31.257C34.904,31.608 35.204,31.608 35.655,31.608L38.037,31.608L36.557,37.524C36.407,38.15 36.182,39.052 36.182,39.378C36.182,40.857 37.435,41.758 38.863,41.758C41.646,41.758 43.224,38.25 43.224,37.924C43.224,37.599 42.899,37.599 42.824,37.599C42.523,37.599 42.498,37.649 42.298,38.074C41.596,39.653 40.316,41.057 38.938,41.057C38.412,41.057 38.062,40.732 38.062,39.828C38.062,39.578 38.162,39.052 38.212,38.802L40.016,31.608" style="fill:rgb(135,135,135);fill-rule:nonzero;"/>
            </g>
            <g transform="matrix(1,0,0,1,228.072,206.983)">
                <path d="M63.298,32.986C63.699,32.986 64.301,32.986 64.301,32.385C64.301,31.758 63.724,31.758 63.298,31.758L48.36,31.758C47.958,31.758 47.357,31.758 47.357,32.36C47.357,32.986 47.933,32.986 48.36,32.986L63.298,32.986" style="fill:rgb(135,135,135);fill-rule:nonzero;"/>
            </g>
            <g transform="matrix(1,0,0,1,228.072,202.897)">
                <path d="M75.548,26.796C75.548,26.119 75.498,26.094 74.794,26.094C73.191,27.674 70.91,27.699 69.882,27.699L69.882,28.6C70.483,28.6 72.138,28.6 73.516,27.899L73.516,40.682C73.516,41.508 73.516,41.835 71.01,41.835L70.058,41.835L70.058,42.736C70.508,42.711 73.591,42.636 74.519,42.636C75.296,42.636 78.454,42.711 79.005,42.736L79.005,41.835L78.054,41.835C75.548,41.835 75.548,41.508 75.548,40.682L75.548,26.796" style="fill:rgb(135,135,135);fill-rule:nonzero;"/>
            </g>
            <g transform="matrix(1,0,0,1,228.072,252.697)">
                <path d="M42.248,1.896C42.248,1.219 42.198,1.194 41.494,1.194C39.891,2.774 37.61,2.799 36.582,2.799L36.582,3.7C37.183,3.7 38.838,3.7 40.216,2.999L40.216,15.782C40.216,16.608 40.216,16.935 37.71,16.935L36.758,16.935L36.758,17.836C37.208,17.811 40.291,17.736 41.219,17.736C41.996,17.736 45.154,17.811 45.705,17.836L45.705,16.935L44.754,16.935C42.248,16.935 42.248,16.608 42.248,15.782L42.248,1.896" style="fill:rgb(135,135,135);fill-rule:nonzero;"/>
            </g>
            <g transform="matrix(2e-06,0,0,2e-06,267.572,250.227)">
                <path d="M0,122C60,14 97,6 101,2C105,6 32,7 104,25C49,27 98,25 115,21C54,70 61,88 67,25C102,79 101,16 76,8C102,23 89,57 104,55C109,50 106,32 88,38C52,1 66,44 107,55C48,61 34,60 65,57C65,56 43,71 105,23C100,36 68,46 83,7C78,57 70,48 51,70C114,42 85,36 54,65C76,44 89,56 72,23C71,48 76,39 116,50C90,34 100,43 79,1C103,12 49,57 71,66C78,15 79,13 109,50C84,18 55,45 84,45C81,39 56,17 116,5C88,55 106,17 49,18C57,2 53,65 56,70C83,39 117,11 54,49C71,56 119,0 110,71C99,7 56,23 76,72C90,37 83,44 80,66C48,52 90,35 49,65C89,71 78,15 116,24C53,21 50,22 51,24C49,65 47,25 68,39C69,73 72,55 77,21C110,17 105,53 86,66C52,55 70,56 71,57C49,48 86,73 76,48C121,55 68,13 66,57C85,21 73,71 49,4C100,10 110,67 47,38C118,55 66,33 51,55C71,0 109,42 105,40C79,19 83,37 104,65C105,10 70,37 107,9C116,34 82,19 71,39C85,66 57,42 103,66C121,73 98,14 78,69C90,13 87,5 88,16C85,44 117,65 97,1C87,0 86,33 107,53C98,38 88,18 67,67C85,33 79,35 89,40C97,11 103,17 85,68C114,4 52,79 71,15C99,70 67,37 103,11C77,37 78,55 68,55C48,0 108,15 54,47C117,47 83,33 107,25C119,66 83,19 83,48C69,32 54,18 67,40C107,9 71,9 75,57C67,55 99,6 115,13C102,3 82,55 108,16C54,53 100,23 118,36C68,55 81,4 50,79C107,25 74,57 105,50C110,19 113,23 107,66C113,20 106,6 53,21C74,20 51,16 67,40C47,8 109,38 48,16C66,43 74,57 110,2C52,10 67,20 77,55C103,16 109,56 99,56C120,69 81,38 76,44C108,23 69,33 81,69C86,36 107,18 110,17C75,43 115,52 82,73C108,36 85,48 88,0C43,52 47,69 78,21C122,24 68,9 82,5C117,68 88,13 49,20C76,43 115,11 103,39C78,3 68,53 54,56C66,32 113,19 68,25C53,57 66,71 81,56C66,4 102,19 65,38C121,56 90,1 51,38C72,8 85,34 55,34C85,2 117,9 73,6C100,3 55,56 68,72C104,4 110,72 81,68C108,46 85,61 60,75C108,25 116,21 120,17C116,60 0,122 0,122Z" style="fill:none;fill-rule:nonzero;stroke:black;stroke-opacity:0;stroke-width:471246px;stroke-miterlimit:10;"/>
            </g>
        </g>
        <g transform="matrix(0.211704,0,0,0.209306,440.148,147.174)">
            <g transform="matrix(1,0,0,1,399.476,91.2985)">
                <path d="M3.544,13.665L3.544,24.763L1.066,24.763L1.066,26.451C2.073,26.415 4.227,26.343 5.591,26.343C6.993,26.343 9.112,26.415 10.118,26.451L10.118,24.763L7.64,24.763L7.64,17.257C7.64,13.341 10.763,11.582 12.99,11.582C14.212,11.582 15.002,12.301 15.002,15.066L15.002,24.763L12.524,24.763L12.524,26.451C13.529,26.415 15.683,26.343 17.049,26.343C18.449,26.343 20.568,26.415 21.574,26.451L21.574,24.763L19.096,24.763L19.096,17.257C19.096,13.341 22.221,11.582 24.448,11.582C25.668,11.582 26.458,12.301 26.458,15.066L26.458,24.763L23.98,24.763L23.98,26.451C24.985,26.415 27.14,26.343 28.505,26.343C29.905,26.343 32.024,26.415 33.03,26.451L33.03,24.763L30.552,24.763L30.552,15.462C30.552,11.762 28.721,10.29 25.021,10.29C21.754,10.29 19.887,12.085 18.952,13.737C18.233,10.398 14.93,10.29 13.565,10.29C10.44,10.29 8.393,11.906 7.244,14.168L7.244,10.29L1.066,10.577L1.066,12.265C3.293,12.265 3.544,12.265 3.544,13.665" style="fill:rgb(135,135,135);fill-rule:nonzero;"/>
            </g>
            <g transform="matrix(1,0,0,1,399.476,61.4453)">
                <path d="M40.016,31.104L42.573,31.104C43.049,31.104 43.374,31.104 43.374,30.553C43.374,30.201 43.049,30.201 42.623,30.201L40.241,30.201L41.169,26.492C41.194,26.367 41.244,26.242 41.244,26.142C41.244,25.69 40.893,25.34 40.393,25.34C39.766,25.34 39.39,25.765 39.215,26.417C39.038,27.043 39.365,25.84 38.262,30.201L35.705,30.201C35.229,30.201 34.904,30.201 34.904,30.753C34.904,31.104 35.204,31.104 35.655,31.104L38.037,31.104L36.557,37.02C36.407,37.646 36.182,38.548 36.182,38.874C36.182,40.353 37.435,41.254 38.863,41.254C41.646,41.254 43.224,37.746 43.224,37.42C43.224,37.095 42.899,37.095 42.824,37.095C42.523,37.095 42.498,37.145 42.298,37.57C41.596,39.149 40.316,40.552 38.938,40.552C38.412,40.552 38.062,40.228 38.062,39.324C38.062,39.074 38.162,38.548 38.212,38.298L40.016,31.104" style="fill:rgb(135,135,135);fill-rule:nonzero;"/>
            </g>
            <g transform="matrix(1,0,0,1,399.476,64.3031)">
                <path d="M63.298,32.482C63.699,32.482 64.301,32.482 64.301,31.881C64.301,31.254 63.724,31.254 63.298,31.254L48.36,31.254C47.958,31.254 47.357,31.254 47.357,31.856C47.357,32.482 47.933,32.482 48.36,32.482L63.298,32.482" style="fill:rgb(135,135,135);fill-rule:nonzero;"/>
            </g>
            <g transform="matrix(1,0,0,1,399.476,60.2172)">
                <path d="M75.548,26.292C75.548,25.615 75.498,25.59 74.794,25.59C73.191,27.17 70.91,27.195 69.882,27.195L69.882,28.096C70.483,28.096 72.138,28.096 73.516,27.395L73.516,40.178C73.516,41.004 73.516,41.331 71.01,41.331L70.058,41.331L70.058,42.232C70.508,42.207 73.591,42.132 74.519,42.132C75.296,42.132 78.454,42.207 79.005,42.232L79.005,41.331L78.054,41.331C75.548,41.331 75.548,41.004 75.548,40.178L75.548,26.292" style="fill:rgb(135,135,135);fill-rule:nonzero;"/>
            </g>
            <g transform="matrix(1,0,0,1,399.476,110.519)">
                <path d="M40.693,8.459C42.648,8.459 44.052,9.813 44.052,12.495C44.052,15.603 42.248,16.531 40.793,16.531C39.791,16.531 37.585,16.254 36.532,14.776C37.71,14.726 37.987,13.898 37.987,13.371C37.987,12.57 37.385,11.993 36.607,11.993C35.905,11.993 35.204,12.42 35.204,13.448C35.204,15.803 37.81,17.332 40.843,17.332C44.327,17.332 46.733,15.001 46.733,12.495C46.733,10.54 45.129,8.585 42.373,8.009C45.004,7.056 45.957,5.176 45.957,3.648C45.957,1.667 43.676,0.188 40.893,0.188C38.112,0.188 35.98,1.542 35.98,3.546C35.98,4.399 36.532,4.876 37.285,4.876C38.062,4.876 38.563,4.299 38.563,3.598C38.563,2.87 38.062,2.345 37.285,2.293C38.162,1.192 39.891,0.915 40.818,0.915C41.946,0.915 43.526,1.467 43.526,3.648C43.526,4.699 43.174,5.853 42.523,6.629C41.696,7.582 40.994,7.632 39.741,7.707C39.115,7.757 39.063,7.757 38.938,7.782C38.888,7.782 38.688,7.832 38.688,8.109C38.688,8.459 38.913,8.459 39.34,8.459L40.693,8.459" style="fill:rgb(135,135,135);fill-rule:nonzero;"/>
            </g>
            <g transform="matrix(2e-06,0,0,2e-06,438.976,106.539)">
                <path d="M0,122C60,14 97,6 101,2C105,6 32,7 104,25C49,27 98,25 115,21C54,70 61,88 73,51C75,40 109,41 55,37C68,37 70,43 102,21C105,9 90,22 109,7C52,41 55,7 83,25C77,61 34,60 65,57C65,56 43,71 105,23C100,36 68,46 83,7C78,57 70,48 51,37C86,68 50,4 87,48C100,5 66,11 118,19C120,10 76,37 112,8C87,67 111,18 117,34C70,21 119,54 50,18C103,13 48,74 107,67C100,42 74,19 90,17C75,35 107,52 57,2C52,74 73,40 116,75C54,49 79,75 47,51C83,36 112,56 82,41C56,45 72,45 54,69C108,71 118,13 117,56C71,16 81,18 114,51C104,73 90,33 87,36C49,24 51,1 104,5C108,8 97,72 100,71C98,71 57,42 49,1C84,70 81,2 120,68C83,46 81,2 98,1C103,33 115,53 89,38C81,19 88,37 107,14C73,70 79,49 69,79C83,67 106,42 84,22C50,35 88,13 57,79C56,49 70,0 81,45C98,5 81,66 73,8C97,42 74,19 72,73C75,53 90,39 83,33C53,21 72,4 108,49C84,14 48,4 56,36C80,12 55,54 97,40C112,72 98,9 54,56C87,16 97,6 86,25C86,9 115,51 99,65C74,11 87,19 116,17C78,35 114,41 114,56C111,69 75,13 67,48C106,9 79,75 106,66C89,18 106,12 48,39C83,45 121,41 69,53C80,38 105,47 83,22C73,55 52,10 90,17C81,6 106,35 74,56C73,11 82,12 97,53C75,51 105,19 98,49C74,66 74,43 56,5C119,10 80,52 98,47C71,50 111,18 86,1C43,41 77,52 101,75C98,1 84,49 70,72C76,5 117,72 111,1C83,1 112,79 101,69C110,70 108,0 101,45C112,34 100,5 74,0C83,49 89,15 107,55C118,54 106,15 120,41C122,47 69,51 90,52C119,54 72,14 66,53C115,72 86,3 82,18C84,14 86,35 105,47C101,49 73,1 120,36C88,39 86,36 119,6C100,42 52,20 43,15C86,68 117,25 57,35C114,8 117,14 53,10C88,1 122,8 75,49C74,54 99,57 82,43C103,57 109,25 111,57C50,5 81,57 100,74C65,41 98,71 52,57C69,66 103,35 99,6C49,40 54,73 70,79C49,73 77,36 114,41C108,16 115,50 52,57C101,74 116,74 57,12C84,10 83,71 60,75C108,25 116,21 120,17C116,60 0,122 0,122Z" style="fill:none;fill-rule:nonzero;stroke:black;stroke-opacity:0;stroke-width:475041px;stroke-miterlimit:10;"/>
            </g>
        </g>
        <g transform="matrix(0.273775,0,0,0.273775,376.066,234.037)">
            <g transform="matrix(1,0,0,1,374.642,90.2905)">
                <path d="M3.544,14.169L3.544,25.267L1.066,25.267L1.066,26.955C2.073,26.919 4.227,26.847 5.591,26.847C6.993,26.847 9.112,26.919 10.118,26.955L10.118,25.267L7.64,25.267L7.64,17.761C7.64,13.846 10.763,12.086 12.99,12.086C14.212,12.086 15.002,12.805 15.002,15.571L15.002,25.267L12.524,25.267L12.524,26.955C13.529,26.919 15.683,26.847 17.049,26.847C18.449,26.847 20.568,26.919 21.574,26.955L21.574,25.267L19.096,25.267L19.096,17.761C19.096,13.846 22.221,12.086 24.448,12.086C25.668,12.086 26.458,12.805 26.458,15.571L26.458,25.267L23.98,25.267L23.98,26.955C24.985,26.919 27.14,26.847 28.505,26.847C29.905,26.847 32.024,26.919 33.03,26.955L33.03,25.267L30.552,25.267L30.552,15.966C30.552,12.266 28.721,10.794 25.021,10.794C21.754,10.794 19.887,12.589 18.952,14.241C18.233,10.902 14.93,10.794 13.565,10.794C10.44,10.794 8.393,12.41 7.244,14.672L7.244,10.794L1.066,11.082L1.066,12.769C3.293,12.769 3.544,12.769 3.544,14.169" style="fill:rgb(135,135,135);fill-rule:nonzero;"/>
            </g>
            <g transform="matrix(1,0,0,1,374.642,60.4373)">
                <path d="M40.016,31.608L42.573,31.608C43.049,31.608 43.374,31.608 43.374,31.057C43.374,30.705 43.049,30.705 42.623,30.705L40.241,30.705L41.169,26.996C41.194,26.871 41.244,26.746 41.244,26.646C41.244,26.194 40.893,25.844 40.393,25.844C39.766,25.844 39.39,26.269 39.215,26.921C39.038,27.547 39.365,26.344 38.262,30.705L35.705,30.705C35.229,30.705 34.904,30.705 34.904,31.257C34.904,31.608 35.204,31.608 35.655,31.608L38.037,31.608L36.557,37.524C36.407,38.15 36.182,39.052 36.182,39.378C36.182,40.857 37.435,41.758 38.863,41.758C41.646,41.758 43.224,38.25 43.224,37.924C43.224,37.599 42.899,37.599 42.824,37.599C42.523,37.599 42.498,37.649 42.298,38.074C41.596,39.653 40.316,41.057 38.938,41.057C38.412,41.057 38.062,40.732 38.062,39.828C38.062,39.578 38.162,39.052 38.212,38.802L40.016,31.608" style="fill:rgb(135,135,135);fill-rule:nonzero;"/>
            </g>
            <g transform="matrix(1,0,0,1,374.642,63.2951)">
                <path d="M63.298,32.986C63.699,32.986 64.301,32.986 64.301,32.385C64.301,31.758 63.724,31.758 63.298,31.758L48.36,31.758C47.958,31.758 47.357,31.758 47.357,32.36C47.357,32.986 47.933,32.986 48.36,32.986L63.298,32.986" style="fill:rgb(135,135,135);fill-rule:nonzero;"/>
            </g>
            <g transform="matrix(1,0,0,1,374.642,59.2092)">
                <path d="M75.548,26.796C75.548,26.119 75.498,26.094 74.794,26.094C73.191,27.674 70.91,27.699 69.882,27.699L69.882,28.6C70.483,28.6 72.138,28.6 73.516,27.899L73.516,40.682C73.516,41.508 73.516,41.835 71.01,41.835L70.058,41.835L70.058,42.736C70.508,42.711 73.591,42.636 74.519,42.636C75.296,42.636 78.454,42.711 79.005,42.736L79.005,41.835L78.054,41.835C75.548,41.835 75.548,41.508 75.548,40.682L75.548,26.796" style="fill:rgb(135,135,135);fill-rule:nonzero;"/>
            </g>
            <g transform="matrix(1,0,0,1,374.642,109.009)">
                <path d="M46.508,13.275L45.655,13.275C45.58,13.825 45.33,15.305 45.004,15.555C44.804,15.707 42.874,15.707 42.523,15.707L37.912,15.707C40.543,13.375 41.419,12.674 42.924,11.496C44.779,10.016 46.508,8.463 46.508,6.082C46.508,3.049 43.851,1.194 40.643,1.194C37.535,1.194 35.43,3.375 35.43,5.68C35.43,6.958 36.507,7.085 36.758,7.085C37.36,7.085 38.087,6.658 38.087,5.755C38.087,5.305 37.912,4.427 36.607,4.427C37.385,2.647 39.088,2.096 40.266,2.096C42.773,2.096 44.077,4.052 44.077,6.082C44.077,8.261 42.523,9.991 41.721,10.894L35.68,16.858C35.43,17.085 35.43,17.135 35.43,17.836L45.755,17.836L46.508,13.275" style="fill:rgb(135,135,135);fill-rule:nonzero;"/>
            </g>
            <g transform="matrix(2e-06,0,0,2e-06,414.142,106.539)">
                <path d="M0,122C60,14 97,6 101,2C105,6 32,7 104,25C49,27 98,25 115,21C54,70 61,88 89,57C107,42 106,33 48,6C74,0 122,17 72,53C57,25 72,39 68,4C51,1 75,23 109,33C85,61 34,60 65,57C65,56 43,71 105,23C100,36 68,46 83,7C78,57 70,48 51,70C114,42 85,36 54,65C76,44 89,56 72,23C87,48 76,41 116,50C90,34 100,43 79,1C103,12 49,57 71,66C78,15 79,13 109,50C84,18 55,45 84,45C81,39 56,17 116,5C88,55 106,17 49,18C57,2 53,65 56,70C83,39 117,11 54,49C71,56 119,0 110,71C99,7 56,23 76,72C90,37 83,45 80,70C48,52 90,35 49,65C89,71 78,15 116,24C53,21 50,22 51,24C49,65 47,25 68,39C69,73 72,55 77,21C110,17 105,53 86,66C52,55 70,56 71,57C49,48 86,73 76,48C121,55 68,13 66,57C85,21 73,71 49,4C100,10 110,67 47,38C118,55 66,33 51,55C71,0 109,42 105,40C79,19 83,37 104,65C105,10 70,37 107,9C116,34 82,19 71,39C85,66 57,42 103,66C121,73 98,14 78,69C90,13 97,5 88,16C86,9 116,6 87,1C87,2 89,7 83,47C78,10 76,70 106,22C115,47 66,32 77,3C112,37 119,40 73,22C86,71 56,20 106,39C79,23 66,55 83,37C109,55 69,18 104,9C89,40 83,1 100,52C88,52 76,45 83,52C89,21 74,33 76,53C67,45 47,41 104,57C119,36 68,36 70,57C104,48 77,35 50,38C78,70 111,10 81,2C57,55 79,5 88,17C104,18 111,34 55,20C83,52 69,19 120,54C122,3 49,51 83,21C86,42 122,72 99,4C69,4 98,69 104,49C47,65 120,48 97,40C103,12 107,11 82,70C99,23 104,42 71,48C81,40 122,49 117,57C89,66 111,48 108,13C121,5 67,45 75,23C113,9 119,41 84,2C70,50 87,47 113,68C121,9 113,53 114,69C47,55 47,74 110,42C113,10 110,73 87,5C117,68 88,13 49,20C76,43 115,11 103,39C78,3 68,53 54,56C67,32 113,19 68,25C53,57 66,71 81,56C66,4 102,19 65,38C121,56 90,1 51,38C72,8 85,34 55,34C85,2 117,9 73,6C100,3 55,56 68,72C104,4 110,72 88,53C108,46 89,61 60,75C108,25 116,21 120,17C116,60 0,122 0,122Z" style="fill:none;fill-rule:nonzero;stroke:black;stroke-opacity:0;stroke-width:365263px;stroke-miterlimit:10;"/>
            </g>
        </g>
        <g transform="matrix(0.289604,0,0,0.289604,329.321,232.806)">
            <g transform="matrix(1,0,0,1,407.634,88.6222)">
                <path d="M15.939,18.905C16.73,18.905 17.089,18.905 17.089,17.937C17.089,16.823 16.874,14.201 15.077,12.405C13.749,11.112 11.845,10.466 9.367,10.466C3.62,10.466 0.497,14.165 0.497,18.654C0.497,23.466 4.088,26.951 9.87,26.951C15.544,26.951 17.089,23.143 17.089,22.534C17.089,21.887 16.406,21.887 16.227,21.887C15.616,21.887 15.544,22.066 15.328,22.641C14.575,24.365 12.528,25.515 10.192,25.515C5.13,25.515 5.094,20.737 5.094,18.905L15.939,18.905ZM5.094,17.721C5.166,16.32 5.202,14.812 5.955,13.626C6.889,12.19 8.325,11.759 9.367,11.759C13.569,11.759 13.641,16.463 13.677,17.721L5.094,17.721" style="fill:rgb(135,135,135);fill-rule:nonzero;"/>
            </g>
            <g transform="matrix(1,0,0,1,407.634,59.6613)">
                <path d="M24.413,30.996L26.969,30.996C27.445,30.996 27.77,30.996 27.77,30.445C27.77,30.093 27.445,30.093 27.019,30.093L24.638,30.093L25.566,26.384C25.591,26.259 25.641,26.134 25.641,26.034C25.641,25.582 25.289,25.232 24.789,25.232C24.163,25.232 23.786,25.657 23.611,26.309C23.434,26.935 23.761,25.732 22.658,30.093L20.102,30.093C19.625,30.093 19.3,30.093 19.3,30.645C19.3,30.996 19.6,30.996 20.052,30.996L22.433,30.996L20.953,36.912C20.803,37.538 20.578,38.44 20.578,38.766C20.578,40.245 21.831,41.146 23.259,41.146C26.042,41.146 27.62,37.638 27.62,37.312C27.62,36.987 27.295,36.987 27.22,36.987C26.919,36.987 26.894,37.037 26.694,37.462C25.992,39.041 24.713,40.445 23.334,40.445C22.808,40.445 22.458,40.12 22.458,39.216C22.458,38.966 22.558,38.44 22.608,38.19L24.413,30.996" style="fill:rgb(135,135,135);fill-rule:nonzero;"/>
            </g>
            <g transform="matrix(1,0,0,1,407.634,105.833)">
                <path d="M30.905,13.863L30.052,13.863C29.977,14.413 29.727,15.893 29.4,16.143C29.2,16.295 27.27,16.295 26.919,16.295L22.308,16.295C24.939,13.963 25.816,13.262 27.32,12.084C29.175,10.604 30.905,9.051 30.905,6.669C30.905,3.637 28.247,1.782 25.039,1.782C21.931,1.782 19.827,3.963 19.827,6.268C19.827,7.546 20.903,7.673 21.155,7.673C21.756,7.673 22.483,7.246 22.483,6.343C22.483,5.893 22.308,5.015 21.003,5.015C21.781,3.235 23.484,2.684 24.663,2.684C27.169,2.684 28.474,4.64 28.474,6.669C28.474,8.849 26.919,10.579 26.117,11.482L20.077,17.446C19.827,17.673 19.827,17.723 19.827,18.424L30.152,18.424L30.905,13.863" style="fill:rgb(135,135,135);fill-rule:nonzero;"/>
            </g>
            <g transform="matrix(2e-06,0,0,2e-06,423.134,105.539)">
                <path d="M0,122C60,14 97,6 101,2C105,6 32,7 104,25C49,27 98,25 115,21C54,70 61,88 122,42C106,70 103,32 72,55C85,11 53,13 115,46C66,3 65,51 121,24C88,7 75,67 103,20C81,61 34,60 65,57C65,56 43,34 105,23C100,36 68,46 83,7C78,57 70,48 51,70C114,42 85,36 100,21C108,13 115,57 105,5C81,18 75,25 49,5C54,47 98,14 120,35C115,57 57,11 89,69C104,45 74,79 51,41C121,33 79,32 83,25C71,53 47,49 107,24C70,70 113,70 57,37C47,23 43,38 100,43C48,19 111,9 101,13C68,19 99,45 54,65C51,54 80,50 84,2C103,36 48,16 81,75C116,46 88,73 106,23C50,6 55,23 112,43C100,34 100,4 47,79C66,41 80,0 114,5C105,38 106,14 109,50C82,2 122,51 73,79C56,48 69,19 106,53C97,15 75,68 108,15C90,48 66,3 103,15C75,20 107,24 52,75C117,1 55,66 47,10C120,3 81,21 80,11C84,17 52,39 52,11C90,11 69,6 71,57C89,17 83,36 53,43C110,68 75,53 82,1C54,19 99,32 121,38C51,67 80,10 79,69C112,65 100,45 119,67C70,24 84,7 117,51C74,35 107,74 110,39C86,2 71,16 97,74C68,46 78,53 68,25C122,41 56,20 84,71C48,38 106,51 97,37C103,17 105,40 107,39C89,13 105,32 105,34C81,0 120,55 88,52C106,43 84,36 85,39C112,49 103,4 65,45C84,23 104,41 48,41C105,52 82,46 104,32C109,38 121,50 53,74C111,32 119,1 68,13C54,15 85,39 108,5C114,71 106,41 121,52C81,17 120,55 88,74C48,35 79,23 86,4C114,2 68,75 56,11C97,10 68,55 55,22C106,53 90,48 75,15C109,53 108,70 101,55C108,53 69,32 119,68C73,51 79,47 97,23C89,45 107,35 105,17C68,45 113,23 111,47C56,40 82,2 104,47C85,9 113,68 112,47C43,42 111,10 47,48C47,74 98,45 79,9C71,68 51,24 101,9C49,65 116,25 113,16C65,15 55,56 71,24C103,57 70,13 105,55C78,8 103,56 72,22C65,52 71,45 122,56C65,71 103,55 122,73C113,13 80,35 111,4C50,5 116,1 100,53C49,24 55,32 121,57C72,65 68,21 80,19C70,0 57,48 81,66C60,75 108,25 116,21C120,17 116,60 0,122Z" style="fill:none;fill-rule:nonzero;stroke:black;stroke-opacity:0;stroke-width:345299px;stroke-miterlimit:10;"/>
            </g>
        </g>
        <g transform="matrix(0.668153,0,0,0.668153,59.4118,66.8946)">
            <g transform="matrix(1,0,0,1,407.634,88.6222)">
                <path d="M15.939,18.905C16.73,18.905 17.089,18.905 17.089,17.937C17.089,16.823 16.874,14.201 15.077,12.405C13.749,11.112 11.845,10.466 9.367,10.466C3.62,10.466 0.497,14.165 0.497,18.654C0.497,23.466 4.088,26.951 9.87,26.951C15.544,26.951 17.089,23.143 17.089,22.534C17.089,21.887 16.406,21.887 16.227,21.887C15.616,21.887 15.544,22.066 15.328,22.641C14.575,24.365 12.528,25.515 10.192,25.515C5.13,25.515 5.094,20.737 5.094,18.905L15.939,18.905ZM5.094,17.721C5.166,16.32 5.202,14.812 5.955,13.626C6.889,12.19 8.325,11.759 9.367,11.759C13.569,11.759 13.641,16.463 13.677,17.721L5.094,17.721" style="fill-rule:nonzero;"/>
            </g>
            <g transform="matrix(1,0,0,1,407.634,59.6613)">
                <path d="M24.413,30.996L26.969,30.996C27.445,30.996 27.77,30.996 27.77,30.445C27.77,30.093 27.445,30.093 27.019,30.093L24.638,30.093L25.566,26.384C25.591,26.259 25.641,26.134 25.641,26.034C25.641,25.582 25.289,25.232 24.789,25.232C24.163,25.232 23.786,25.657 23.611,26.309C23.434,26.935 23.761,25.732 22.658,30.093L20.102,30.093C19.625,30.093 19.3,30.093 19.3,30.645C19.3,30.996 19.6,30.996 20.052,30.996L22.433,30.996L20.953,36.912C20.803,37.538 20.578,38.44 20.578,38.766C20.578,40.245 21.831,41.146 23.259,41.146C26.042,41.146 27.62,37.638 27.62,37.312C27.62,36.987 27.295,36.987 27.22,36.987C26.919,36.987 26.894,37.037 26.694,37.462C25.992,39.041 24.713,40.445 23.334,40.445C22.808,40.445 22.458,40.12 22.458,39.216C22.458,38.966 22.558,38.44 22.608,38.19L24.413,30.996" style="fill-rule:nonzero;"/>
            </g>
            <g transform="matrix(1,0,0,1,407.634,105.833)">
                <path d="M30.905,13.863L30.052,13.863C29.977,14.413 29.727,15.893 29.4,16.143C29.2,16.295 27.27,16.295 26.919,16.295L22.308,16.295C24.939,13.963 25.816,13.262 27.32,12.084C29.175,10.604 30.905,9.051 30.905,6.669C30.905,3.637 28.247,1.782 25.039,1.782C21.931,1.782 19.827,3.963 19.827,6.268C19.827,7.546 20.903,7.673 21.155,7.673C21.756,7.673 22.483,7.246 22.483,6.343C22.483,5.893 22.308,5.015 21.003,5.015C21.781,3.235 23.484,2.684 24.663,2.684C27.169,2.684 28.474,4.64 28.474,6.669C28.474,8.849 26.919,10.579 26.117,11.482L20.077,17.446C19.827,17.673 19.827,17.723 19.827,18.424L30.152,18.424L30.905,13.863" style="fill-rule:nonzero;"/>
            </g>
            <g transform="matrix(2e-06,0,0,2e-06,423.134,105.539)">
                <path d="M0,122C60,14 97,6 101,2C105,6 32,7 104,25C49,27 98,25 115,21C54,70 61,88 122,42C106,70 103,32 72,55C85,11 53,13 115,46C66,3 65,51 121,24C88,7 75,67 103,20C81,61 34,60 65,57C65,56 43,34 105,23C100,36 68,46 83,7C78,57 70,48 51,70C114,42 85,36 100,21C108,13 115,57 105,5C81,18 75,25 49,5C54,47 98,14 120,35C115,57 57,11 89,69C104,45 74,79 51,41C121,33 79,32 83,25C71,53 47,49 107,24C70,70 113,70 57,37C47,23 43,38 100,43C48,19 111,9 101,13C68,19 99,45 54,65C51,54 80,50 84,2C103,36 48,16 81,75C116,46 88,73 106,23C50,6 55,23 112,43C100,34 100,4 47,79C66,41 80,0 114,5C105,38 106,14 109,50C82,2 122,51 73,79C56,48 69,19 106,53C97,15 75,68 108,15C90,48 66,3 103,15C75,20 107,24 52,75C117,1 55,66 47,10C120,3 81,21 80,11C84,17 52,39 52,11C90,11 69,6 71,57C89,17 83,36 53,43C110,68 75,53 82,1C54,19 99,32 121,38C51,67 80,10 79,69C112,65 100,45 119,67C70,24 84,7 117,51C74,35 107,74 110,39C86,2 71,16 97,74C68,46 78,53 68,25C122,41 56,20 84,71C48,38 106,51 97,37C103,17 105,40 107,39C89,13 105,32 105,34C81,0 120,55 88,52C106,43 84,36 85,39C112,49 103,4 65,45C84,23 104,41 48,41C105,52 82,46 104,32C109,38 121,50 53,74C111,32 119,1 68,13C54,15 85,39 108,5C114,71 106,41 121,52C81,17 120,55 88,74C48,35 79,23 86,4C114,2 68,75 56,11C97,10 68,55 55,22C106,53 90,48 75,15C109,53 108,70 101,55C108,53 69,32 119,68C73,51 79,47 97,23C89,45 107,35 105,17C68,45 113,23 111,47C56,40 82,2 104,47C85,9 113,68 112,47C43,42 111,10 47,48C47,74 98,45 79,9C71,68 51,24 101,9C49,65 116,25 113,16C65,15 55,56 71,24C103,57 70,13 105,55C78,8 103,56 72,22C65,52 71,45 122,56C65,71 103,55 122,73C113,13 80,35 111,4C50,5 116,1 100,53C49,24 55,32 121,57C72,65 68,21 80,19C70,0 57,48 81,66C60,75 108,25 116,21C120,17 116,60 0,122Z" style="fill-rule:nonzero;stroke:black;stroke-opacity:0;stroke-width:149666px;stroke-miterlimit:10;"/>
            </g>
        </g>
    </g>
</svg>
